<?xml version="1.0" encoding="UTF-8"?><svg id="Layer_2" xmlns="http://www.w3.org/2000/svg" xmlns:xlink="http://www.w3.org/1999/xlink" viewBox="0 0 839.7 928.32"><defs><clipPath id="clippath"><rect width="839.7" height="928.32" style="fill:none;"/></clipPath></defs><g id="Layer_1-2"><g id="Group_768"><g style="clip-path:url(#clippath);"><g id="Group_767"><path id="Path_1236" d="m669.81,403.85c-.2-5.86-.74-11.71-1.47-17.51-.43-3.51-.92-7.02-1.47-10.51-.98-6.27-2.27-12.48-3.75-18.66-2.76-11.51-6.36-22.81-10.76-33.81-24.59-61.42-72.35-110.75-133.01-137.37-12.54-5.51-25.52-9.96-38.8-13.31-6.28-1.59-12.62-2.96-19-4.07-4.09-.71-8.21-1.29-12.34-1.81-3.64-.45-7.3-.8-10.95-1.11-4.4-.38-8.8-.58-13.2-.71-6.36-.19-12.71-.17-19.07.27-4.15.28-8.31.35-12.44.9-3.06.12-6.07.75-9.12.98-3.86.66-7.74,1.16-11.58,1.88-6.36,1.19-9.78,1.87-15.42,3.28-83.99,20.97-151.35,83.45-178.45,165.52-.72,2.2-1.39,4.42-2.08,6.63-.15.59-.4,1.15-.73,1.66-.13.22-.4.29-.62.17,0,0,0,0,0,0-.54-.28-1.07-.58-1.58-.9-.43-.19-.93.01-1.11.44-.01.03-.03.07-.04.1-.93,3.54-1.87,7.08-2.76,10.63-1.19,4.73-2.19,9.51-3.07,14.32-.18,1.08-.3,2.17-.36,3.27-.03.36.1.72.37.98.18.17.34.35.52.49.37.32.76.61,1.13.93.5.38.75,1,.65,1.61-.33,2.44-.69,4.83-.98,7.26-.33,2.79-.6,5.58-.9,8.38-.03.12-.07.24-.12.35-.07.24-.32.38-.56.31-.24-.05-.46-.13-.67-.25-.32-.18-.62-.4-.93-.58-.39-.2-.86-.05-1.06.33-.03.05-.05.1-.06.16-.17,1.95-.35,3.9-.49,5.86-.13,1.7-.26,3.42-.3,5.11-.06,2.56-.06,5.13-.05,7.69,0,4.52.08,9.03.4,13.54.16,2.31.08,2.36,1.96,3.57.21.13.41.27.6.42.4.29.66.74.71,1.23.23,2.44.43,4.88.65,7.3.13,1.46.27,2.93.44,4.39.29,2.55.6,5.09.89,7.63v.37c-.06.36-.37.63-.73.64-1.2-.22-2.29-.83-3.49-1.04-.3-.05-.66.34-.61.71,0,.24.03.49.06.73,1.45,6.68,2.9,13.35,4.36,20.01.49,2.15.98,4.29,1.47,6.42.13.48.47.87.93,1.06.33.16.67.3,1.02.42.81.28,1.62.53,2.44.82.35.14.62.41.76.76.2.44.36.9.49,1.37,1.34,4.95,2.88,9.84,4.53,14.69.16.46.35.91.59,1.34.12.21.3.38.52.49.44.21.91.37,1.38.49,4.43.93,8.89,1.73,13.37,2.3,3.27.42,6.54.91,9.85,1.01.61,0,1.22.09,1.83.16,1.96.23,3.91.32,5.87.36,2.2.04,4.4.06,6.61.07,6.12,0,12.23-.43,18.28-1.32,3.52-.49,6.99-1.19,10.43-2.02.83-.2,1.67-.35,2.51-.54,2.99-.67,6.1-.69,9.1-.06.48.09.97.15,1.47.18.12-.01.24-.06.33-.14.2-.14.27-.4.16-.62-.34-.78-.69-1.56-1.09-2.32-1.93-3.68-3.7-7.43-5.33-11.26-.12-.34-.21-.69-.27-1.05-.08-.31.32-.67.69-.63.24,0,.48.03.72.07,3.42.97,6.64,2.52,9.53,4.59.41.28.74.64.98,1.07.41.75.8,1.51,1.19,2.27,5.7,11.23,12.68,21.76,20.78,31.41.66.72,1.15,1.58,1.44,2.52.52,1.63,1.23,3.19,2.1,4.66,2.29,4.18,4.36,8.47,6.2,12.86.14.34.28.68.39,1.03.1.33.1.68,0,1.02-.22.04-.44-.03-.59-.2-1.04-1.31-1.67-2.88-2.76-4.15-.15.31-.3.61-.44.93-.12.28-.45.41-.73.29-.04-.02-.08-.04-.11-.07-.37-.32-.76-.62-1.11-.98-7.4-7.3-14.13-15.25-20.12-23.74-.35-.49-.69-1.01-1.05-1.5-.3-.39-.7-.68-1.16-.87-1.12-.49-2.29-.86-3.49-1.1-3.95-.86-8.02-1.06-12.04-.61-3.29.33-6.55.86-9.78,1.5-3.72.73-7.42,1.52-11.15,2.21-5.04,1.01-10.13,1.72-15.25,2.11-.61.04-1.22.13-1.83.17-1.47.1-2.93.23-4.4.26-3.92.1-7.83,0-11.74-.33-4.15-.37-8.27-.84-12.36-1.59-.24-.02-.48,0-.72.03-.32.03-.45.19-.41.46.34,1.3.85,2.55,1.52,3.71,30.65,65.59,88.07,114.86,157.63,135.29,9.03,2.65,18.21,4.77,27.5,6.34,1.81.31,3.62.59,5.43.87,2.54.39,5.08.8,7.63,1.06,3.65.38,7.29.89,10.96,1.01.49,0,.98.09,1.47.13,1.83.13,3.66.3,5.49.37,8.32.3,16.63.3,24.94,0,1.34-.05,2.69-.14,4.03-.24,1.83-.13,3.66-.29,5.49-.43.86-.07,1.72-.07,2.56-.21,3.02-.49,6.1-.49,9.1-1.12,3.91-.38,7.75-1.08,11.6-1.78,6.13-1.12,12.22-2.47,18.25-4.05,23.35-6.06,45.7-15.47,66.34-27.93,42.28-25.49,76.16-62.79,97.44-107.28,7.06-14.77,12.64-30.2,16.66-46.06,1.26-4.97,2.39-9.97,3.34-15,.68-3.6,1.3-7.2,1.79-10.84.33-2.44.62-4.84.92-7.27.17-1.33.31-2.67.44-4,.1-.98.12-1.95.25-2.93.31-2.3.42-4.62.51-6.94.07-1.71.13-3.42.23-5.12.28-4.39.34-8.79.24-13.18-.07-3.05-.26-6.1-.37-9.15m-31.93-90.01c.49-.11.98.13,1.21.57.16.33.31.66.44,1.01,1.1,2.97,2.21,5.94,3.31,8.92,3.17,8.58,6.34,17.16,9.52,25.74.19.45.32.92.39,1.4,0,.36-.17.7-.45.93-.21.12-.43.23-.66.33-2.28.84-4.58,1.68-6.88,2.51-.49.09-.98-.12-1.25-.54-.36-.91-.72-1.81-1.06-2.72-2.67-7.2-5.34-14.41-8.01-21.61-.25-.68-.55-1.35-.84-2.03-.17-.33-.52-.52-.89-.49-.35.1-.71.18-1.05.3-2.98,1.09-5.96,2.18-8.94,3.28-.22.1-.44.22-.64.36-.34.15-.54.51-.49.88.26.81.49,1.63.8,2.44,2.4,6.52,4.8,13.05,7.21,19.57.34.91.64,1.84.95,2.76.05.37-.12.73-.43.92-.21.13-.42.25-.64.35-2.17.81-4.35,1.61-6.53,2.41-.11.04-.24.04-.36.08-.48.11-.98-.08-1.27-.49-.32-.79-.64-1.59-.93-2.39-2.45-6.63-4.91-13.27-7.37-19.9-.23-.82-.58-1.6-1.04-2.32-.15-.2-.38-.31-.63-.31-.12-.01-.24,0-.35.03-4.24,1.56-8.48,3.12-12.71,4.69-.23.09-.44.21-.64.35-.21.13-.33.37-.31.62.1.72.3,1.43.6,2.1,1.27,3.42,2.55,6.86,3.82,10.29,1.7,4.57,3.38,9.15,5.07,13.73.21.57.35,1.16.51,1.75.02.37-.15.72-.44.94-.1.06-.19.17-.29.21-2.4.9-4.77,1.88-7.23,2.61-.48.1-.98-.13-1.21-.56-.05-.11-.13-.21-.17-.32-.13-.34-.25-.69-.38-1.03l-6.05-16.3c-2.68-7.26-4.66-12.64-6.65-18.01-.25-.69-.49-1.38-.73-2.07-.15-.47.03-.98.44-1.25.67-.28,1.35-.58,2.03-.83l49.16-18.12c.69-.25,1.39-.46,2.07-.72m-40.39-60.26c.29-.21.64-.36.95-.54.21-.14.5-.11.67.08.19.15.37.31.54.49,2.81,3.85,5.61,7.71,8.4,11.57.13.2.25.42.35.64.11.22.1.49-.02.7-.44.73-.96,1.42-1.55,2.04-4.31,5.16-8.62,10.32-12.94,15.47l-9.64,11.54c-.27.24-.46.57-.53.92,0,.11.04.22.11.3.08.09.19.13.31.13.59-.16,1.17-.34,1.74-.56l31.3-12.58c.9-.37,1.82-.71,2.75-.98.37-.08.75.02,1.03.28.18.16.35.34.49.54,2.73,3.75,5.46,7.51,8.19,11.27.13.21.24.42.34.64.08.36,0,.73-.23,1.02-.49.38-.94.78-1.43,1.14l-42.78,30.98c-.59.43-1.21.82-1.81,1.24-.32.19-.71.17-1.01-.05-.09-.08-.22-.13-.29-.22-1.74-2.36-3.58-4.64-5.09-7.16-.12-.22-.09-.5.08-.68.39-.47.86-.87,1.38-1.19l16.34-11.84c4.85-3.51,9.7-7.03,14.55-10.55.64-.36,1.2-.84,1.65-1.42.08-.13.03-.3-.1-.38-.06-.03-.13-.05-.2-.03-1.26.49-2.51.98-3.76,1.46l-33.56,13.85c-.9.37-1.82.71-2.73,1.06-.37,0-.73-.1-1.02-.32-.66-.87-1.35-1.74-1.96-2.64-1.19-1.7-2.55-3.28-3.57-5.1-.15-.21-.15-.48,0-.69.28-.4.53-.82.84-1.19,2.3-2.7,4.6-5.39,6.92-8.07l18.4-21.41c.49-.56.94-1.13,1.41-1.69.36-.42.48-1,.3-1.53l.17-.04-.15-.09-.03.09v-.03c-.24.35-.54.66-.9.89l-12.48,9.02c-6.24,4.52-12.48,9.03-18.72,13.55-.69.49-1.42.95-2.13,1.42-.35.15-.75.04-.98-.26-.53-.67-1.07-1.33-1.56-2.03-1.2-1.69-2.53-3.29-3.58-5.09-.14-.34-.08-.73.15-1.01.28-.23.55-.49.84-.71.59-.44,1.18-.86,1.78-1.3l38.03-27.53c1.58-1.15,3.16-2.3,4.75-3.44m-44.89-38.67c.35-.35.91-.4,1.32-.11.49.36.98.72,1.47,1.1l12.07,9.57,14.94,11.85c.76.61,1.52,1.23,2.26,1.86.41.29.53.86.27,1.29-1.67,2.11-3.34,4.21-5.01,6.31-.37.34-.91.4-1.34.16-.4-.29-.8-.57-1.18-.87l-10.91-8.66c-2.87-2.28-5.75-4.56-8.63-6.83-.49-.38-.98-.72-1.47-1.07-.33-.18-.73-.14-1.02.1-.17.18-.37.33-.52.51-2.06,2.58-4.12,5.16-6.17,7.74-.14.2-.26.41-.38.62-.16.33-.12.72.11,1.01.56.49,1.1.98,1.67,1.42,5.45,4.33,10.91,8.66,16.37,12.99.67.53,1.33,1.07,2,1.61.82.67.87,1.27.15,2.18-1.21,1.54-2.43,3.06-3.65,4.59-.33.51-.76.96-1.27,1.3-.11.05-.22.08-.33.11-.12,0-.24-.02-.36-.06-.49-.33-1.03-.65-1.51-1.03-4.51-3.56-9.01-7.13-13.51-10.7-1.63-1.3-3.26-2.59-4.89-3.87-.29-.22-.6-.41-.9-.62-.29-.21-.69-.21-.98,0-.1.08-.19.15-.27.24-2.89,3.63-5.77,7.27-8.66,10.9-.22.44-.13.98.23,1.32.19.16.37.32.56.49l1.73,1.37c6.13,4.86,12.26,9.72,18.39,14.58.76.61,1.47,1.26,2.22,1.91.24.27.27.67.07.98-1.59,2.16-3.26,4.27-5.01,6.31-.35.36-.9.44-1.33.18-.49-.36-.98-.72-1.47-1.1-2.88-2.28-5.75-4.56-8.62-6.83-6.71-5.32-13.41-10.63-20.11-15.95-.57-.45-1.11-.98-1.65-1.46-.21-.3-.24-.69-.06-1.01.37-.49.72-.98,1.11-1.46,10.57-13.29,21.15-26.58,31.73-39.87.84-1.05,1.71-2.07,2.57-3.1m-47.31-23.82c.29-.4.83-.54,1.29-.34.66.31,1.33.61,2,.92,1.88.88,3.76,1.77,5.64,2.66.22.1.42.25.63.38.42.26.62.76.49,1.23-.45,1-.9,2.01-1.37,3-5.81,12.24-11.61,24.49-17.41,36.73-.45.73-.78,1.53-.98,2.36-.06.24.01.49.18.67.16.19.34.35.55.49.76.4,1.53.76,2.3,1.13l19.89,9.41c.47.15.89.42,1.23.77.13.2.22.41.26.64.02.12,0,.25-.06.36-1.05,2.47-2.2,4.89-3.45,7.27-.12.22-.34.37-.59.41-.11.02-.23.02-.35,0-.46-.17-.91-.34-1.36-.54-10.39-4.9-20.78-9.8-31.17-14.71-.55-.26-1.07-.58-1.61-.87-.26-.25-.38-.62-.32-.98.29-.67.57-1.35.89-2.01,7.37-15.55,14.75-31.1,22.13-46.65.37-.77.76-1.53,1.15-2.29m-69.09,15.57c.59-4.73,1.91-9.34,3.91-13.67.93-1.99,2.08-3.88,3.42-5.62,2.83-3.72,6.67-6.55,11.07-8.14,1.94-.75,3.99-1.18,6.07-1.27,1.22-.03,2.44-.05,3.67,0,3.43.15,6.8.94,9.94,2.34,2.93,1.26,5.54,3.18,7.61,5.6,1.61,1.85,2.84,3.99,3.63,6.31.53,1.62.92,3.29,1.17,4.98.04.36.07.73.07,1.09.12.7-.35,1.36-1.05,1.48-.06,0-.11.02-.17.02-.85.06-1.71.11-2.56.15-.73.03-1.47.05-2.2.07h0c-1.34.02-2.69.06-4.03.07-.63.04-1.2-.38-1.33-1-.13-.6-.22-1.2-.36-1.8-.8-4.32-4.08-7.76-8.37-8.79-2.26-.63-4.64-.65-6.9-.06-2.14.58-4.08,1.72-5.62,3.32-1.11,1.14-2.04,2.44-2.76,3.86-.84,1.63-1.53,3.33-2.04,5.09-1.05,3.64-1.73,7.37-2.02,11.14-.21,2.32,0,4.66.64,6.9.96,3.87,3.79,7.01,7.54,8.39,2.07.8,4.31,1.02,6.49.65,1.82-.32,3.52-1.11,4.93-2.29,1.32-1.09,2.45-2.4,3.34-3.87.58-.93,1.12-1.89,1.68-2.83.24-.28.63-.39.98-.28,2.81,1.48,5.56,3.06,8.26,4.74.54.34.72,1.04.41,1.6-1.3,2.63-3,5.05-5.03,7.17-2.8,2.95-6.42,4.99-10.39,5.86-.24.06-.48.11-.72.14-4.75.64-9.58.12-14.08-1.54-4.28-1.58-7.97-4.41-10.61-8.13-2.74-3.78-4.38-8.24-4.75-12.89-.26-2.93-.2-5.87.19-8.79m-4.06,33.75c3.27.43,6.57.61,9.84,1.09s6.52.98,9.78,1.6c6.37,1.19,12.66,2.75,18.85,4.68,60.49,18.74,106.33,68.33,120.17,130.02.91,4.05,1.69,8.13,2.27,12.24.5,2.89.84,5.8,1.03,8.73.96,9.97,1.12,20,.49,30-.04.98-.16,1.95-.26,2.93-.07.73-.18,1.46-.24,2.19-.46,5.1-1.19,10.18-2.16,15.21-1.6,8.64-3.87,17.15-6.78,25.44-4.39,12.57-10.21,24.6-17.34,35.85-.26.41-.57.79-.86,1.18-.25.27-.63.37-.98.23-2.18-1.1-4.28-2.36-6.27-3.76-.25-.26-.34-.63-.24-.98.12-.21.19-.45.32-.66.38-.62.78-1.24,1.16-1.86,4.9-7.88,9.14-16.16,12.67-24.75,3.79-9.16,6.75-18.65,8.82-28.34.88-4.18,1.62-8.39,2.21-12.62.53-3.75.9-7.52,1.15-11.29s.28-7.57.3-11.35c0-3.17-.09-6.34-.2-9.52-.05-1.58-.23-3.16-.36-4.74-.05-.61-.14-1.22-.19-1.82-1.48-16.07-5.35-31.83-11.49-46.75-18.5-45.21-55.73-80.18-102.06-95.86-7.06-2.39-14.28-4.29-21.61-5.69-3.85-.74-7.71-1.35-11.59-1.84-8.02-.96-16.1-1.33-24.17-1.11-2.08.05-4.16.13-6.23.2-1.83.04-3.66.19-5.48.44-.36.05-.73.09-1.1.12-18.3,1.73-36.17,6.53-52.86,14.2-18.07,8.23-34.54,19.6-48.62,33.59-1.13,1.12-2.26,2.23-3.4,3.34-.31.21-.7.23-1.03.07-2.01-1.39-3.99-2.82-5.87-4.39-.27-.25-.33-.65-.16-.98.39-.49.76-.98,1.18-1.4,17.08-17.77,37.7-31.77,60.54-41.09,9.72-4,19.8-7.09,30.1-9.22,5.01-1.03,7.63-1.46,12.27-2.16,3.15-.49,6.33-.64,9.47-1.11.36-.05.73-.07,1.1-.09,4.64-.23,9.29-.46,13.91-.49,4.67.04,9.29.27,13.96.49m83.2,142.88c-.17-1.46-.56-2.88-1.15-4.22-.77-1.8-1.8-3.48-3.07-4.97-1.17-1.4-2.46-2.71-3.85-3.9-1.85-1.6-3.81-3.07-5.87-4.39-2.56-1.66-5.21-3.19-7.93-4.59-4.13-2.14-8.36-4.04-12.65-5.86-1.8-.76-3.61-1.51-5.38-2.29-1.01-.44-2-.93-2.99-1.41-3.88-1.86-7.32-4.52-10.08-7.81-1.42-1.68-2.85-3.35-4.25-5.04-3.67-4.39-7.37-8.79-11.25-13.06-2.63-2.89-5.3-5.75-8.08-8.51-2.17-2.16-4.47-4.17-6.89-6.05-1.83-1.43-3.77-2.72-5.81-3.83-.98-.52-1.96-.98-2.96-1.46-3.82-1.71-8.03-2.35-12.19-1.84-2.33.24-4.52,1.27-6.18,2.93-1.29,1.31-2.37,2.81-3.19,4.45-1.27,2.51-2.23,5.16-2.85,7.9-.82,3.44-1.37,6.95-1.66,10.47-.28,3.42-.49,6.83-.49,10.25,0,2.57.07,5.13.35,7.68.05.48.09.97.12,1.46.24,3.9.72,7.78,1.44,11.62,1,5.78,1.37,11.65,1.12,17.51-.03.85-.11,1.71-.12,2.56-.28,4.63-.98,9.23-2.07,13.74-.19.71-.35,1.42-.54,2.13-.17.46-.65.73-1.13.64-.45-.19-.91-.36-1.36-.55-1.02-.42-1.91-1.09-2.6-1.95-2.44-3.04-4.95-6.06-7.44-9.07-8.1-9.79-16.28-19.52-24.63-29.11-3.69-4.24-7.46-8.41-11.19-12.62-2.37-2.64-4.9-5.13-7.57-7.46-4.22-3.72-8.56-7.29-12.95-10.81-7.73-6.19-15.57-12.24-23.47-18.21-1.19-.84-2.33-1.75-3.42-2.72-.24-.27-.27-.67-.09-.98.08-.09.13-.21.21-.3.16-.19.33-.36.49-.53,11.8-12.1,25.41-22.29,40.35-30.21,12.1-6.43,24.99-11.28,38.33-14.44,4.4-1.04,8.84-1.95,13.32-2.6,2.89-.51,5.81-.86,8.74-1.03,8.41-.81,16.86-.99,25.3-.54,1.34.04,2.68.2,4.02.31.61.05,1.21.14,1.82.2,12.44,1.08,24.7,3.66,36.52,7.68,53.8,18.08,94.28,62.84,106.8,118.11.87,3.81,1.61,7.65,2.15,11.51.49,2.89.83,5.8,1.03,8.73,0,.37.04.73.09,1.09.52,5.05.73,10.13.66,15.21-.03,1.86-.07,4.3-.13,6.75-.03,1.83-.16,3.66-.38,5.48-.08.61-.14,1.22-.18,1.82-.32,4.63-.93,9.24-1.8,13.79-2.51,14.08-6.89,27.76-13.03,40.68-2.83,5.96-6.01,11.74-9.55,17.31-.27.55-.65,1.03-1.12,1.42-.2.14-.44.19-.67.13-.76-.38-1.51-.8-2.24-1.25-3.12-1.93-6.23-3.87-9.34-5.82-3.11-1.95-6.24-3.85-9.48-5.58-1.5-.82-2.96-1.72-4.36-2.7-2.51-1.74-4.99-3.53-7.44-5.37-6.85-5.12-13.52-10.49-20.25-15.78-5.1-4-10.22-7.97-15.33-11.94-.67-.53-1.37-1.03-2.05-1.55-4.78-3.62-9.95-6.69-15.42-9.16-6.23-2.83-12.65-5.25-19.2-7.23-2.68-.83-5.38-1.61-8.11-2.29-.59-.15-1.16-.39-1.74-.58-.36-.11-.62-.43-.65-.81-.12-3.68.89-7.32,2.89-10.42.98-1.41,2.2-2.63,3.62-3.6,1.31-.9,2.71-1.66,4.19-2.26,2.03-.84,4.13-1.51,6.27-2.02,2.49-.61,5.01-1.13,7.54-1.59,4.45-.79,8.93-1.46,13.39-2.21,5.8-.9,11.55-2.1,17.23-3.58,2.83-.75,5.61-1.69,8.31-2.81,1.58-.66,3.11-1.43,4.59-2.3,1.48-.87,2.85-1.91,4.08-3.09,2.84-2.75,4.58-6.43,4.89-10.37.19-2.31.17-4.64-.05-6.95m-145.31-205.11c2.93-.33,5.8-.84,8.74-.98.24-.02.49,0,.73.04.24.04.46.14.65.29.5.54.97,1.1,1.41,1.68,5.68,7.64,11.36,15.29,17.04,22.94,2.33,3.14,4.67,6.27,7.02,9.39.16.19.41.28.66.22.1-.01.2-.07.26-.15.13-.34.16-.72.07-1.08-.54-4.36-1.04-8.72-1.47-13.09-.14-1.46-.38-2.9-.57-4.35h.07c-.44-3.76-.89-7.51-1.3-11.27-.23-2.06-.41-4.13-.61-6.19-.04-.41.4-1.09.74-1.13,2.67-.31,5.32-.83,8.01-.92.24,0,.49.05.72.06.35.11.64.36.81.68.09.49.21.98.25,1.44.39,4.01.87,8,1.34,12,.38,3.15.66,6.31,1.01,9.46.13,1.21.32,2.44.45,3.63.34,3.15.66,6.31.98,9.46.09.85.2,1.7.29,2.54.14,1.21.27,2.43.41,3.64.11.98.21,1.95.32,2.93.12,1.09.26,2.18.38,3.27.16,1.33.3,2.66.46,4,.21,1.33.31,2.67.29,4.01-.04.36-.27.67-.6.82-1.08.2-2.16.43-3.25.57-2.06.25-4.13.45-6.2.66-.49.07-.99-.12-1.32-.49-.56-.64-1.09-1.32-1.59-2-7.32-9.76-14.64-19.54-21.96-29.32-.43-.74-1-1.39-1.68-1.91-.11-.04-.23-.04-.35,0-.09,0-.24.08-.25.15-.07.23-.09.48-.08.72.36,3.15.75,6.3,1.1,9.45s.66,6.31.98,9.46c.1.98.26,1.95.35,2.93.38,4.25,1.1,8.47,1.28,12.74-.05.36-.29.67-.63.82-.23.06-.46.17-.7.2-.72.12-1.47.25-2.18.33-1.82.2-3.65.37-5.47.54-.63.04-1.19-.39-1.32-1-.25-2.06-.52-4.11-.75-6.17-.35-3.15-.66-6.31-.98-9.46-.08-.73-.17-1.46-.25-2.18-.14-1.21-.28-2.42-.42-3.64-.12-1.09-.25-2.18-.37-3.28-.11-.98-.22-1.95-.33-2.93-.15-1.33-.31-2.66-.45-4-.11-.98-.2-1.95-.3-2.93-.12-1.09-.24-2.18-.36-3.28s-.25-2.19-.37-3.28c-.14-1.21-.28-2.44-.42-3.64-.1-.85-.19-1.7-.28-2.55-.17-1.46-.35-2.93-.49-4.36s-.24-2.93-.35-4.39c.04-.49.35-.92.8-1.11m-50.1,17.6c0-.37.18-.72.49-.92.2-.14.4-.28.62-.4,3.05-1.26,6.05-2.61,9.15-3.72.36-.11.75,0,1.01.28.88.85,1.73,1.71,2.57,2.6,9.8,10.39,19.6,20.78,29.4,31.17l9.05,9.59c.37.32.66.72.83,1.18.02.23-.02.47-.12.68-.06.11-.16.19-.28.23-2.99,1.39-6.06,2.59-9.12,3.8-.23.08-.47.12-.71.1-.24,0-.48-.07-.68-.19-.39-.29-.75-.62-1.08-.98-2.24-2.44-4.46-4.85-6.7-7.27-.33-.36-.68-.68-1.07-.98-.29-.24-.67-.33-1.03-.24-.24.04-.48.1-.71.18-5.99,2.46-11.97,4.93-17.95,7.4-.11.05-.21.12-.31.19-.44.23-.73.66-.8,1.15-.03.36-.03.73,0,1.09.14,3.29.21,6.58.56,9.86.05.49.06.98.03,1.46-.04.37-.23.7-.51.93-.09.08-.19.15-.3.2-3.02,1.33-6.05,2.61-9.14,3.75-.37.06-.73-.14-.87-.49-.07-.49-.19-.98-.21-1.44-.13-2.31-.25-4.63-.34-6.94-.08-2.2-.1-4.39-.18-6.58-.1-2.68-.23-5.37-.34-8.04s-.22-5.37-.33-8.04h.09c-.18-4.14-.37-8.28-.55-12.43-.09-2.07-.16-4.14-.23-6.22-.09-3.05-.18-6.1-.26-9.14-.03-.61-.02-1.22.02-1.83m-60.98,44.31c.05-2.21.59-4.37,1.58-6.34.92-1.87,2.11-3.59,3.53-5.11,2.92-3.14,6.38-5.73,10.22-7.64,1.54-.74,3.16-1.31,4.83-1.71,1.25-.27,2.53-.37,3.8-.31,3.03.02,5.98.93,8.49,2.62,1.45.91,2.76,2.04,3.87,3.34.39.46.34,1.15-.11,1.54-.02.02-.04.03-.06.05-.09.08-.17.18-.26.25-2.04,1.75-4.08,3.5-6.14,5.23-1.23,1.03-1.26.86-2.22.21-.97-.74-2.03-1.36-3.15-1.84-.46-.17-.93-.3-1.41-.37-1.58-.24-3.2.01-4.64.73-2.2,1.08-4.16,2.59-5.76,4.46-.63.74-1.16,1.56-1.58,2.44-.36.77-.56,1.61-.59,2.47-.04,2.44,1.87,4.46,4.31,4.57.98.04,1.96-.06,2.9-.32,2.23-.64,4.42-1.43,6.55-2.36,1.68-.73,3.37-1.46,5.07-2.13,2.15-.87,4.36-1.59,6.62-2.15,2.38-.58,4.86-.67,7.28-.25,2.18.36,4.25,1.24,6.02,2.55,3.32,2.34,5.84,5.65,7.21,9.47.51,1.5.84,3.06.98,4.64.17,2.33-.18,4.66-1.03,6.83-.54,1.49-1.29,2.9-2.23,4.19-.71.99-1.48,1.94-2.3,2.85-2.66,2.88-5.75,5.33-9.15,7.27-2.33,1.35-4.89,2.28-7.54,2.75-1.81.32-3.66.32-5.47,0-3.02-.53-5.89-1.72-8.4-3.49-1.42-.95-2.74-2.05-3.91-3.29-.32-.38-.34-.92-.06-1.33.08-.09.13-.21.22-.29,2.13-2.02,4.25-4.03,6.39-6.05.39-.32.95-.32,1.34,0,.69.49,1.37,1.03,2.08,1.5,1.43.95,3.02,1.61,4.7,1.95,1.08.23,2.2.23,3.28,0,1.8-.37,3.51-1.12,5-2.19,1.3-.91,2.49-1.98,3.53-3.18,1.41-1.56,2.22-3.56,2.31-5.66.18-2.24-.78-4.42-2.55-5.81-.86-.71-1.93-1.1-3.04-1.12-.86-.04-1.72.05-2.54.28-1.05.33-2.1.66-3.12,1.06-2.16.85-4.3,1.75-6.44,2.64-1.9.84-3.85,1.56-5.84,2.15-1.29.4-2.59.72-3.91.98-7.4,1.31-14.7-2.72-17.53-9.66-.83-2.04-1.21-4.24-1.12-6.45m-88.64,132.38c.01-.49.06-.98.14-1.46,1.21-6.34,2.6-12.66,4.31-18.9.06-.24.15-.46.28-.66.16-.18.42-.24.64-.15.56.24,1.08.57,1.54.98,3.64,2.67,7.26,5.37,10.94,8,6.17,4.39,12.5,8.55,19.05,12.38,6.51,3.87,13.3,7.26,20.3,10.15,3.62,1.46,7.33,2.74,11.02,4.01,1.96.67,3.91,1.39,5.87,2.1,1.49.56,2.93,1.23,4.31,2.02,2.45,1.38,4.68,3.12,6.62,5.17,1.27,1.32,2.45,2.73,3.54,4.2.73.98,1.42,1.99,2.12,2.99,1.88,2.71,3.47,5.61,4.75,8.64,3.52,8.32,6.7,16.76,9.53,25.34,3.58,10.77,6.72,21.66,9.58,32.64.92,3.54,1.78,7.09,2.69,10.64.25.93.39,1.88.42,2.84-.23.04-.49,0-.56-.16-.35-.64-.66-1.3-.93-1.98-2.3-5.91-4.94-11.69-7.9-17.3-.5-.98-.9-2-1.18-3.06-1.47-5.16-3.07-10.28-5.01-15.29-1.69-4.45-3.67-8.78-5.91-12.98-2.24-4.2-4.87-8.19-7.85-11.9-2.82-3.52-6.08-6.68-9.69-9.39-4.79-3.62-10.29-6.2-16.14-7.56-9.41-2.18-18.56-5.36-27.29-9.48-11.63-5.44-22.74-11.92-33.2-19.35-.49-.35-.98-.75-1.43-1.14-.37-.33-.55-.82-.49-1.31m74.18,11.67c.05-.49.07-.98.17-1.46,2.98-15.22,7.94-29.98,14.76-43.9.29-.81.72-1.55,1.29-2.19.1-.07.23-.09.35-.06.1.03.19.1.23.2.38,1.66.63,3.35.76,5.05.15,1.95.32,3.9.59,5.82.14.98.17,1.95.21,2.35.04.69.04.81.05.93.09,1.09-.09,2.19-.52,3.21-1.86,4.64-3.52,9.36-4.96,14.15-1.72,5.72-3.13,11.53-4.21,17.41-.15.84-.4,1.66-.61,2.48-.12.33-.48.5-.81.39-.02,0-.04-.01-.06-.02-2.17-1.12-4.36-2.21-6.6-3.16-.43-.24-.68-.71-.64-1.2m43.47,99.31c.27.22.42.55.4.89,0,.11,0,.27-.07.31-.24.16-.38.04-.43-.29-.08-.31-.04-.63.1-.91m-18.63-33.95l-.05-.08h.03l.03.09m-.1-.14c-2.76-3.79-5.96-7.23-9.55-10.25-.65-.56-1.32-1.09-1.99-1.61-.48-.39-.78-.95-.84-1.56-.16-1.08-.37-2.16-.45-3.25-.22-2.67-.37-5.34-.54-8.01-.01-.24.13-.46.35-.56.22-.13.5-.07.65.14.46.57.93,1.13,1.35,1.72,1.47,2.08,2.84,4.25,4.11,6.47,2.68,4.78,4.98,9.75,6.89,14.89.26.66.26,1.39,0,2.05m-18.26-17c-.13.33-.49.52-.84.42-.45-.17-.91-.34-1.36-.51-1.57-.66-3.18-1.21-4.83-1.65-.47-.12-.92-.31-1.35-.54-.21-.12-.38-.31-.46-.54-.15-.46-.25-.94-.29-1.43-.35-5.34-.43-10.69-.25-16.03.03-.4.38-.71.78-.68.09,0,.17.03.25.06.11.05.23.08.34.14,2.45,1.36,4.72,3.01,6.77,4.92.37.33.59.79.61,1.28.03.85.04,1.7.06,2.55.04,1.58.08,3.16.12,4.68.16,1.88.33,3.69.49,5.51.08.6.07,1.21-.02,1.81m34.72,73.42c-.62-.91-1.18-1.85-1.77-2.78-1.55-2.48-3.25-4.88-5.07-7.17-2.06-2.58-4.35-4.96-6.85-7.12-3.32-2.9-7.13-5.2-11.25-6.78-3.43-1.33-7.06-2.04-10.73-2.1-2.32-.03-4.64.08-6.95.33-.73.08-1.47.22-2.19.26-5.12.26-10.23.8-15.37.9-5.38.1-10.76.12-16.14.03-3.18-.05-6.36-.14-9.52-.49-.98-.1-1.96-.14-2.93-.2-1.96-.11-3.91-.31-5.84-.52-2.67-.29-5.34-.61-8-1.01-2.9-.41-5.78-.98-8.62-1.71-.34-.11-.67-.26-.98-.44-.33-.17-.58-.47-.68-.82-.56-2.37-1.1-4.75-1.62-7.14-.71-3.22-1.42-6.43-2.1-9.65-.15-.71-.2-1.46-.28-2.17.03-.44.41-.78.86-.75.04,0,.08,0,.12.02.94.28,1.88.54,2.81.84,6.76,2.12,13.64,3.83,20.6,5.14,3.97.75,7.95,1.38,11.95,1.83,6.19.77,12.44.95,18.66.54,5-.39,10.01-.43,15.03-.34,3.3.08,6.58.52,9.78,1.31,5.12,1.25,9.91,3.6,14.03,6.88,2.69,2.11,5.15,4.51,7.33,7.15,2.67,3.18,5.17,6.5,7.47,9.96,3.15,4.79,6,9.78,8.51,14.93.21.43.39.88.58,1.31-.32.14-.69.03-.89-.25m-28.67-41.22h.15c-.16.16-.21.16-.15,0m-.03-.07c-.21.05-.42.09-.64.12-.12,0-.25-.03-.36-.08-2.48-1-5.03-1.82-7.63-2.44-.48-.12-.87-.48-1.03-.95-.57-1.73-1-3.49-1.31-5.29-.05-.42.24-.8.66-.86.07,0,.14,0,.22,0,.12,0,.24,0,.36.04,2.58.7,5.08,1.68,7.45,2.93.66.33,1.15.94,1.33,1.65.36,1.28.68,2.58,1.02,3.87.07.33.04.67-.09.98m6.91.32c.37.62.81,1.19,1.33,1.7,1.83,2.12,3.41,4.45,4.71,6.94.03.1,0,.21-.06.29-.08.08-.18.12-.29.12-.12-.01-.24-.07-.33-.15-1.37-1.21-2.75-2.41-4.11-3.64-.28-.24-.49-.54-.64-.88-.34-.91-.65-1.84-.91-2.77-.15-.56-.04-1.16.3-1.63m-.34.31s.04-.09.07-.13c.06-.05.12-.09.18-.13l-.25.25m23.03,40.95c.4.53.51,1.24.28,1.86-.11-.19-.23-.38-.32-.58-.2-.41-.19-.89.04-1.28m1.67,5.19v-.08s0,.05,0,.07h0m0-.34h0c-.05-.46-.21-.89-.45-1.28.37.3.55.79.45,1.26m-.61-1.73v.17l-.69-1.29c.5.1.82.59.72,1.09,0,.01,0,.02,0,.03m2.78-4.44s-.19,0-.23-.06c-.25-.26-.48-.55-.67-.86-.41-.75-.75-1.53-1.14-2.29-2.55-5.01-5.39-9.86-8.52-14.53-.14-.2-.27-.41-.41-.61-.55-.81-.97-1.7-1.22-2.64-.76-2.58-1.71-5.09-2.83-7.53-1.75-3.9-3.98-7.57-6.63-10.93-1.75-2.21-3.71-4.23-5.87-6.04-3.38-2.83-7.24-5.04-11.4-6.52-3.34-1.18-6.77-2.12-10.24-2.81-4.43-.91-8.89-1.62-13.36-2.36-7.33-1.22-14.7-2.5-21.94-4.3-11.19-2.69-21.96-6.85-32.05-12.38-1.71-.95-3.38-1.95-5.07-2.96-.42-.25-.82-.53-1.21-.83-.39-.3-.64-.75-.71-1.23-.05-.36-.08-.73-.09-1.09-.22-7.32-.29-14.64-.11-21.96-.05-.73.04-1.46.25-2.17.06-.17.38-.25.59-.32.12-.03.25,0,.35.07,1.01.69,2.01,1.37,3.01,2.08,10.12,7.29,20.84,13.71,32.04,19.2,6.36,3.13,12.95,5.77,19.71,7.92,4.32,1.34,8.72,2.4,13.17,3.18.6.11,1.21.17,1.82.23,5.74.61,11.24,2.64,15.99,5.92,2.53,1.73,4.88,3.69,7.04,5.86,2.93,2.95,5.59,6.15,7.96,9.57,3.34,4.82,6.3,9.89,8.86,15.17,3.36,6.92,6.3,14.03,8.8,21.3.76,2.19,1.47,4.39,2,5.94.9,2.99,1.73,5.29,2.25,7.67,0,.1-.07.23-.15.32m8.08,8.45c-.05-.06-.13-.11-.15-.18-.03-.11-.04-.22-.03-.33.02-.11.04-.21.08-.31.05.06.15.11.15.17,0,.21-.03.43-.05.64m.29-19.16c-.62,3.98-.86,8.02-.7,12.05.02.98.02,1.95,0,2.93,0,.32-.16.49-.35.41-.1-.03-.24-.13-.26-.21-.76-3.46-1.54-6.91-2.26-10.37-1.47-6.93-3.05-13.82-4.74-20.7-2.18-8.89-4.53-17.74-7.12-26.52-3.42-11.6-7.18-23.08-11.68-34.3-1.18-2.93-2.44-5.86-3.67-8.79-.67-1.57-1.47-3.09-2.4-4.52-2.11-3.44-4.51-6.69-7.18-9.71-.17-.18-.33-.36-.49-.55-.39-.48-.56-1.1-.49-1.71.09-.85.16-1.7.31-2.55,1.27-7.46,3.05-14.83,5.31-22.05.13-.33.38-.61.69-.78.1,0,.27,0,.3.06.18.45.26.94.23,1.43.11,2.93.62,5.83.87,8.75.87,5.55,2.17,11.02,3.91,16.36,2.88,8.58,6.82,16.76,11.74,24.36,4.91,7.62,10.59,14.7,16.97,21.15,5.75,5.84,11.96,11.2,18.58,16.04.69.49,1.36,1.03,2.04,1.55.35.33.37.89.04,1.24-.01.01-.02.03-.04.04-.49.53-1,1.07-1.52,1.59-1.99,1.99-3.85,4.1-5.58,6.32-5.32,6.73-9.18,14.5-11.33,22.8-.49,1.89-.86,3.81-1.2,5.73m205.54,59.82c-.36.32-.75.62-1.15.88-4.47,2.77-9.08,5.3-13.81,7.58-11.11,5.4-22.8,9.51-34.86,12.25-4.66,1.05-9.34,1.95-14.06,2.57-3.38.53-6.79.87-10.21,1.03-.86,0-1.71.08-2.56.16-3.17.3-6.36.37-9.21.35-3.38,0-6.44-.06-9.49-.34-1.22-.11-2.44-.16-3.66-.23-1.71-.09-3.42-.24-5.11-.49-2.3-.32-4.61-.56-6.91-.9-5.43-.82-10.82-1.93-16.14-3.32-27.96-7.31-53.47-21.92-73.89-42.34-.46-.4-.85-.88-1.13-1.42.11-.2.18-.49.33-.56.35-.1.72-.14,1.08-.12,3.42.1,6.85.13,10.27,0,1.22-.03,2.45.07,3.65.28,4.72.72,9.52.73,14.25.03,6.91-1.02,13.59-3.23,19.74-6.53,5.74-3.03,11.09-6.73,15.95-11.03.92-.81,1.85-1.59,2.78-2.38.33-.18.73-.14,1.02.09.61.6,1.23,1.18,1.83,1.79,6.32,6.49,13.23,12.37,20.64,17.57,8.79,6.22,18.32,11.34,28.36,15.25,5.81,2.26,11.81,4.02,17.92,5.28,4.31.91,8.67,1.52,13.07,1.84,3.05.2,6.1.38,9.16.45s6.11.32,9.16.49c1.71.1,3.42.23,5.13.29,5.26.19,10.51.38,15.77.52,3.55.09,7.1.1,10.64.15.49-.04.98.04,1.43.22.08.04.11.2.12.31s0,.26-.05.31m7.82,1.27c3.83-2.59,2.53-2.16,7.08-2.35,3.29-.24,6.59-.3,9.89-.18.21,0,.31.31.29.57-.01.12-.07.24-.16.33-.35.34-.71.67-1.09.98-18.43,14.65-39.61,25.46-62.3,31.79-6.01,1.67-12.1,3.03-18.24,4.07-2.52.49-5.07.85-7.63,1.06-3.87.67-7.79.79-11.69,1.09-3.42.26-6.85.23-9.37.31-3.23-.05-5.55-.07-7.87-.15-1.59-.05-3.17-.19-4.76-.29-.61-.04-1.22-.14-1.83-.16-3.42-.11-6.85-.6-10.22-1.03-3.15-.4-6.29-.92-9.41-1.53-6.36-1.23-12.65-2.8-18.85-4.71-20.15-6.21-39.02-15.99-55.71-28.86-1.16-.89-2.27-1.86-3.46-2.72-1.39-.82-2.25-2.3-2.29-3.9-.61-2.74-1.22-5.48-1.81-8.22-.08-.36-.12-.72-.12-1.09.02-.38.2-.73.49-.98.17-.19.43-.24.66-.14.65.33,1.24.79,1.73,1.34,7.52,6.82,15.65,12.94,24.27,18.3,14.86,9.26,31.1,16.12,48.11,20.3,5.76,1.41,9.11,2.05,14.74,2.93,4.47.71,8.97,1.15,13.48,1.52,4.76.4,9.53.49,14.3.49,3.06.01,6.12-.13,9.16-.42.98-.1,1.96-.15,2.93-.2,1.71-.1,3.42-.24,5.11-.49,2.05-.32,4.15-.36,6.18-.84,12.95-1.93,25.63-5.42,37.74-10.39,10.77-4.38,21.05-9.88,30.67-16.39m-211.6-7.56c-.04-.1-.04-.21,0-.31.01.1.01.21,0,.31m.06-.76s0-.03,0-.04h.02v.02m-.56-.75c.12.28.31.52.55.71-.98.12-1.02.1-1.02-.91.19-.05.39.04.49.21m-39,55.94c-.17.11-.46.04-.69,0-.12-.03-.23-.1-.3-.2-2.17-2.31-4.33-4.65-6.32-7.12-.21-.31-.19-.72.04-1.02.17-.18.31-.38.49-.54.63-.58,1.27-1.14,1.91-1.71,9.13-8.13,18.26-16.26,27.38-24.37.8-.56,1.49-1.26,2.05-2.06.04-.1.02-.21-.03-.29-.06-.07-.23-.15-.29-.12-.89.4-1.78.8-2.65,1.24-10.19,5.3-20.39,10.6-30.58,15.91-2.06,1.07-4.07,2.23-6.22,3.14-.35.12-.74.05-1.03-.18-.1-.06-.2-.14-.28-.23-2.12-2.37-4.24-4.73-6.36-7.11-.4-.49-.43-1.18-.06-1.69.2-.31.39-.62.6-.92.55-.81,1.1-1.62,1.65-2.44l20.01-29.38c.69-1.01,1.37-2.02,2.04-3.05.3-.47.36-1.04.17-1.56l.18-.05-.15-.08-.04.1v-.04c-.22.36-.49.68-.82.95-2.47,2.19-4.94,4.38-7.4,6.57-7.22,6.42-14.44,12.83-21.65,19.24-.82.73-1.68,1.42-2.53,2.11-.31.19-.71.19-1.02,0-.09-.08-.2-.14-.28-.23-1.96-2.18-3.91-4.36-5.87-6.55-.15-.19-.27-.4-.38-.62-.13-.22-.11-.49.05-.68.45-.58.97-1.1,1.55-1.55,5.57-4.96,11.14-9.92,16.71-14.87l24.12-21.43c.43-.44.92-.81,1.47-1.1.21-.14.49-.12.69.04.2.13.4.28.58.44,3.5,3.92,6.99,7.85,10.47,11.78.15.19.27.41.35.64.03.12.02.24-.03.35-.12.34-.27.66-.44.98-.59.93-1.21,1.84-1.81,2.75l-18.39,27.82c-.34.49-.66,1.03-.98,1.55-.14.2-.16.46-.05.67.12.21.39.29.6.17.01,0,.03-.01.04-.02.98-.49,1.98-.98,2.96-1.46l29.76-15.08c.76-.39,1.53-.76,2.3-1.13.47-.18,1-.06,1.34.31.34.35.69.69,1.01,1.06,2.93,3.28,5.87,6.56,8.8,9.84.32.37.63.75.93,1.13.31.39.31.95,0,1.34-.7.67-1.4,1.36-2.13,2.01-8.13,7.23-16.26,14.46-24.39,21.69-5.22,4.63-10.43,9.26-15.65,13.88-.46.41-.95.78-1.47,1.11m64.96-25.91c0,.16-.07.65-.17,1.13-1.11,5.37-2.23,10.74-3.33,16.11-1.1,5.37-2.14,10.74-3.23,16.11-1.09,5.37-2.21,10.74-3.31,16.11-.63,3.1-1.24,6.21-1.85,9.32-.12.72-.33,1.42-.64,2.09-.22.29-.6.4-.94.26-.11-.06-.23-.1-.33-.16-2.96-1.95-5.92-3.89-8.88-5.83-.54-.33-.81-.96-.67-1.58.04-.24.1-.49.16-.71.81-3.69,1.63-7.38,2.44-11.07.04-.24.06-.48.06-.73.02-.37-.12-.73-.39-.98-.17-.18-.36-.34-.56-.49-5.92-3.88-11.85-7.75-17.77-11.63-.2-.14-.42-.24-.66-.3-.23-.07-.48-.06-.71.02-.64.36-1.25.75-1.84,1.19-2.75,2.03-5.49,4.08-8.23,6.11-.19.15-.4.28-.61.4-.43.26-.97.24-1.38-.04-2.97-1.93-5.93-3.87-8.88-5.82-.57-.38-.54-1.02.05-1.46l.89-.65,1.78-1.28,45.38-32.21c.89-.63,1.81-1.23,2.73-1.84.32-.2.72-.2,1.04,0,.33.16.65.34.95.54,2.56,1.67,5.11,3.34,7.66,5.01.21.13.39.29.59.43.58.45.83,1.2.66,1.91m112.71,82.4c-.09.35-.34.64-.66.79-.24.06-.48.1-.72.14-2.56.19-5.12.37-7.69.54-.61.04-1.22.03-1.83.03-.49-.05-.91-.39-1.05-.86-.07-.61-.16-1.21-.19-1.82-.12-2.68-.24-5.37-.49-8.04-.1-.98-.13-1.95-.18-2.93-.14-3.17-.36-6.34-.56-9.51-.33-5.12-.64-10.24-.93-15.35-.17-2.93-.27-5.86-.54-8.79-.22-2.44-.31-4.88-.46-7.32,0-.07-.11-.14-.16-.2-.09.08-.23.15-.25.24-.32,1.8-.62,3.61-.92,5.41-.12.35-.42.6-.78.67-.12.02-.24.03-.36.04l-9.86-.94c-1.1-.1-2.2-.19-3.29-.29-1.47-.14-2.93-.28-4.4-.42-.49-.05-.98-.12-1.47-.16l-7.35-.56c-.63-.06-1.21.36-1.34.98-.05.24-.11.49-.15.72-.07.49-.15.98-.19,1.46-.19,2.8-.43,5.6-.78,8.39-.04.49-.05.98-.04,1.46.06.36.29.66.62.83.34.12.69.22,1.05.29,1.1.12,2.19.2,3.29.3l4.02.39c.49.05.98.13,1.47.17l11.7,1.02c.61.02,1.22.12,1.79.32.31.19.55.48.68.82,0,.12,0,.24,0,.36-.22,2.43-.43,4.86-.66,7.29-.04.24-.1.48-.18.71-.19.31-.49.54-.84.63-.24,0-.49.06-.72.05-.73-.03-1.47-.04-2.2-.13-3.16-.36-6.36-.58-9.5-.9-2.07-.21-4.14-.41-6.21-.57-1.47-.11-2.93-.27-4.4-.4-.49.07-.89.41-1.05.88-.05.24-.12.49-.16.71-.06.36-.1.73-.14,1.09-.34,3.9-.64,7.81-1.03,11.67-.29,2.93-.59,5.83-.81,8.75-.05.36-.11.72-.21,1.08-.18.46-.61.78-1.11.82-2.32-.18-4.64-.34-6.95-.55-1.1-.07-2.19-.24-3.25-.53-.33-.15-.57-.46-.63-.82-.01-.61,0-1.22.06-1.83.31-2.3.49-4.61.65-6.93.05-.73.15-1.46.23-2.19.12-1.21.25-2.43.37-3.65.17-1.7.33-3.4.49-5.1.07-.73.15-1.46.2-2.19.13-1.95.27-3.9.55-5.86.14-.98.16-1.95.25-2.93.13-1.46.28-2.93.42-4.39.08-.85.19-1.7.24-2.55.13-1.95.27-3.9.55-5.86.12-.84.17-1.7.23-2.55.11-1.71.27-3.41.49-5.11.28-1.56.35-3.15.19-4.73-.08-.23-.33-.36-.57-.29-.55.27-1.07.6-1.55.98-2.84,2.12-5.67,4.26-8.49,6.4l-18.43,13.93c-.78.59-1.55,1.19-2.32,1.8-.39.3-.68.71-.86,1.17-.26.68-.53,1.36-.79,2.05-2.19,5.83-4.37,11.66-6.56,17.48-.26.68-.53,1.37-.81,2.05-.21.6-.86.93-1.47.75-2.98-1.1-5.96-2.21-8.93-3.32-.94-.35-1.15-.82-.85-1.67.24-.69.49-1.38.75-2.06,1.2-3.2,2.39-6.4,3.59-9.61,1.24-3.32,2.47-6.63,3.71-9.95.21-.58.25-1.2.11-1.8-1.82-8.6-3.63-17.19-5.45-25.79-.76-3.58-1.5-7.16-2.24-10.74-.07-.48-.11-.97-.12-1.46.02-.35.31-.62.66-.6.01,0,.03,0,.04,0,.35.11.71.18,1.05.3,3.32,1.24,6.64,2.48,9.96,3.72.23.08.45.19.65.33.32.19.55.49.65.85.29,1.43.59,2.87.85,4.31.68,3.72,1.36,7.44,2.03,11.17.32,1.8.63,3.61.98,5.41.27,1.44.57,2.87.86,4.3.15.32.52.48.85.36.64-.35,1.24-.78,1.77-1.28,5.22-4.23,10.43-8.48,15.65-12.75.57-.46,1.15-.91,1.7-1.4.73-.88,2-1.09,2.98-.49l9.63,3.56c.45.19.97.17,1.41-.05.42-.25.91-.37,1.4-.36,1.1.08,2.2.16,3.29.26,1.71.15,3.42.32,5.11.49l3.29.32c1.1.11,2.19.25,3.29.32,1.83.13,3.66.27,5.48.52.85.12,1.71.15,2.56.22l5.11.49c.37.03.73.09,1.1.11,2.68.17,5.38.41,8.04.74.49.06.98.07,1.47.05.25,0,.49-.07.67-.23.68-.72,1.65-1.1,2.64-1.03,2.81-.11,5.62-.26,8.43-.39.24-.01.49.04.71.14.23.1.41.27.52.49.11.35.17.71.18,1.08.23,5,.77,9.99.88,14.99,0,.61.05,1.22.12,1.83.31,2.93.42,5.86.54,8.79.03.85.08,1.71.15,2.96.4,3.25.49,6.91.66,10.57.04.85.12,1.7.17,2.56.15,2.31.3,4.63.44,6.95.14,2.19.29,4.39.41,6.58.03.61,0,1.22,0,1.82m107.42-34.58c-.32.18-.64.36-.98.53-1.3.68-2.6,1.36-3.91,2.03-9.34,4.81-18.68,9.62-28.02,14.43-.98.49-1.96.98-2.96,1.46-.48.13-.98-.07-1.24-.49-.52-.98-1.04-1.95-1.55-2.93l-22.33-43.27c-.56-1.08-1.14-2.16-1.73-3.23-.14-.19-.32-.36-.52-.49-.07-.06-.26-.1-.29-.07-.08.09-.12.21-.11.34.24,1.19.49,2.38.71,3.46.44,1.18.67,2.43.67,3.69-.03.24-.16.46-.36.59-.67.29-1.36.53-2.07.71-5.1,1.25-10.21,2.48-15.32,3.7-3.42.82-6.9,1.63-10.34,2.44-.71.17-1.4.43-2.1.65-.32.17-.54.5-.57.86.08.73.24,1.45.49,2.14.57,2.5,1.16,4.99,1.77,7.48.15.59.36,1.17.62,1.72.12.21.33.35.56.39.86.01,1.71-.11,2.53-.37,4.28-1.03,8.55-2.08,12.82-3.11,3.68-.89,7.36-1.77,11.05-2.64.49-.11.98-.18,1.44-.28.36-.02.71.17.88.49.11.22.2.44.28.67.61,2.49,1.21,4.97,1.8,7.46.01.5-.31.95-.79,1.09-1.06.28-2.12.58-3.19.83-7.36,1.77-14.73,3.54-22.1,5.3-.59.14-1.17.35-1.75.54-.48.13-.81.58-.79,1.08.04.49.1.98.19,1.46.98,4.03,1.97,8.06,2.96,12.08.13.61.7,1.03,1.32.98.72-.12,1.47-.21,2.17-.39,8.43-2.04,16.86-4.09,25.29-6.14,1.07-.26,2.15-.46,3.22-.7.36,0,.7.18.89.49.14.34.27.68.37,1.03.58,2.37,1.14,4.74,1.71,7.11.01.49-.29.94-.75,1.13-2.25.56-4.5,1.13-6.76,1.67l-28.85,6.95c-2.25.54-4.52,1.06-6.78,1.59-.5.03-.96-.28-1.13-.75-.31-1.18-.64-2.35-.92-3.54-3.65-15.05-7.29-30.11-10.93-45.16-.52-2.13-1.04-4.27-1.54-6.4-.07-.36-.12-.72-.15-1.08.01-.49.28-.93.71-1.17,2.01-.49,4.02-1.04,6.04-1.52,11.05-2.67,22.09-5.33,33.13-7.98.83-.2,1.68-.33,2.52-.46.48-.09.94-.25,1.36-.49,3.14-1.63,6.29-3.25,9.44-4.88.46-.22,1-.02,1.22.43,0,0,0,.02.01.03.36.63.73,1.27,1.07,1.92,4.26,8.24,8.51,16.48,12.77,24.72,2.41,4.66,4.82,9.32,7.24,13.98.3.53.62,1.05.98,1.55.15.21.41.3.66.22.24-.04.47-.1.7-.19.98-.49,1.96-.98,2.93-1.46l19.56-10.06c.76-.39,1.54-.75,2.3-1.13.35-.1.73,0,.98.26.08.09.16.18.23.28,1.23,2.38,2.46,4.77,3.69,7.16.18.46,0,.99-.41,1.25m36.87-33.85c-1,2.5-2.4,4.81-4.14,6.86-1.26,1.49-2.63,2.89-4.1,4.18-5.57,4.94-11.16,9.87-16.75,14.78-.18.16-.4.28-.6.42-.3.19-.7.17-.98-.05-.43-.43-.87-.85-1.27-1.31-9.64-10.87-19.27-21.74-28.9-32.61-2.43-2.74-4.86-5.48-7.28-8.22-.4-.45-.78-.94-1.16-1.41-.21-.31-.21-.71,0-1.02.33-.35.65-.73,1.01-1.05,5.12-4.53,10.24-9.06,15.37-13.58,1.82-1.63,3.75-3.13,5.77-4.5.71-.48,1.54-.76,2.4-.79,2.7-.04,5.39-.24,8.07-.58,1.44-.09,2.53-.14,3.63-.22,1.34-.03,2.68-.15,4.01-.34,1.46-.23,2.95.04,4.23.76,2.31,1.11,4.48,2.51,6.45,4.15,3.77,3.12,7.11,6.72,9.93,10.71,2.07,2.88,3.63,6.09,4.63,9.49.71,2.34,1.08,4.76,1.11,7.2,0,2.44-.48,4.86-1.41,7.13m29.9-51.41c-.02.11-.07.2-.15.27-.09.08-.2.14-.32.17-1.44.29-2.88.59-4.32.84-3.98.69-7.95,1.38-11.94,2.02-2.42.39-4.84.68-7.27,1.02-2.79.39-5.57.79-8.36,1.14-2.55.33-5.1.64-7.65.9-1.96.2-3.91.41-5.84.61-3.77.4-7.55.67-11.33.98-.49.04-.98.04-1.47.1-4.98.61-10.01.62-15.01,1.09-1.82.17-3.67.17-5.5.25-3.06.13-6.11.27-9.17.39-1.71.07-3.42.14-5.13.18-3.42.06-6.85.1-10.94.16-4.35,0-9.37-.03-14.39-.07-4.16-.03-8.31-.13-12.47-.39-1.96-.13-3.91-.17-5.87-.23-3.06-.11-6.11-.21-9.16-.52-2.19-.22-4.39-.3-6.6-.26-4.04,0-8.07-.31-12.07-.9-5.82-.77-11.57-2.05-17.17-3.81-10.16-3.2-19.86-7.71-28.85-13.42-11-6.89-20.99-15.27-29.69-24.89-.33-.36-.67-.7-1.01-1.05-.29-.24-.7-.26-1.01-.04-.7.67-1.42,1.34-2.11,2.03-4.17,4.13-8.78,7.8-13.75,10.94-4.13,2.62-8.54,4.79-13.14,6.45-3.23,1.14-6.56,1.98-9.94,2.51-1.7.23-3.41.36-5.12.41-2.69.14-5.39.03-8.06-.35-3.27-.45-6.48-1.28-9.57-2.46-.91-.36-1.82-.72-2.72-1.1-.57-.25-1-.72-1.2-1.31-.45-1.27-.8-2.58-1.05-3.9-.62-2.61-1.02-5.28-1.17-7.96-.07-2.07-.17-4.15-.13-6.22.17-11.31,3.79-22.31,10.38-31.52,3.18-4.5,6.89-8.6,11.06-12.2.7-.49,1.32-1.09,1.84-1.77.09-.22.07-.47-.07-.66-.46-.41-.95-.78-1.47-1.11-4.5-2.95-8.82-6.17-12.93-9.63-9.05-7.5-17.08-16.14-23.91-25.7-5.33-7.46-9.68-15.58-12.92-24.15-2.07-5.61-3.63-11.4-4.66-17.3-.29-2.79-.84-5.55-.95-8.37-.06-1.59-.25-3.16-.38-4.74-.03-.37-.1-.73-.11-1.09-.17-4.15-.74-8.27-.98-12.41-.07-1.22-.23-2.44-.35-3.65-.05-.49-.14-.98-.17-1.46-.16-3.42-.66-6.81-1.03-10.2-.31-2.79-.61-5.58-1.09-8.35-.33-1.92-.59-3.86-.9-5.79-1.93-12.07-5.53-23.81-10.69-34.89-2.74-5.86-5.76-11.59-8.94-17.23-.21-.3-.33-.66-.34-1.03.01-.12.07-.23.16-.31.09-.06.2-.08.3-.06.68.28,1.3.68,1.84,1.17,7.33,5.3,14.65,10.62,21.97,15.94,14.71,10.74,29.34,21.6,43.77,32.7,7.36,5.67,14.67,11.4,21.79,17.38,1.59,1.34,3.15,2.7,4.72,4.07,2.48,2.18,4.84,4.49,7.05,6.94,6.67,7.32,13.14,14.81,19.56,22.35,7.82,9.21,15.57,18.51,23.24,27.87.54.66,1.08,1.33,1.65,1.95.23.28.52.52.84.69,2.54,1.21,5.05,2.48,7.66,3.53.12.03.24.05.36.06.25.09.52-.04.62-.28.29-.53.54-1.09.75-1.66,1.01-3.27,1.83-6.58,2.47-9.94.49-2.65.73-5.32,1.13-7.97.11-.72.13-1.46.17-2.19.19-3.9.21-7.81,0-11.71-.06-1.22-.22-2.44-.34-3.65-.34-3.28-.98-6.52-1.47-9.76-.13-.85-.24-1.69-.33-2.54-.09-.85-.13-1.71-.23-2.55-.61-5.96-.75-11.95-.41-17.93.3-4.51.99-8.98,2.06-13.37.53-2.13,1.28-4.2,2.24-6.18.53-1.1,1.2-2.13,2.01-3.05.48-.56,1.05-1.03,1.68-1.41.53-.31,1.1-.53,1.7-.65,2.3-.41,4.65-.37,6.93.1,1.2.26,2.37.63,3.49,1.11,1.81.75,3.54,1.67,5.18,2.74,2.25,1.48,4.38,3.12,6.39,4.92,1.84,1.62,3.57,3.34,5.27,5.1,5.02,5.18,9.78,10.58,14.42,16.11,1.41,1.69,2.81,3.38,4.23,5.07.94,1.12,1.9,2.24,2.86,3.34,2.96,3.44,6.58,6.24,10.66,8.25,1.75.87,3.54,1.66,5.33,2.44,2.8,1.22,5.62,2.39,8.42,3.62,3.47,1.52,6.88,3.18,10.2,5.02,2.79,1.52,5.48,3.24,8.03,5.12,1.97,1.45,3.79,3.1,5.41,4.93,1.23,1.37,2.22,2.93,2.93,4.63.34.79.56,1.62.66,2.46.07.73.13,1.46.23,2.19.22,2.07.1,4.16-.37,6.19-.31,1.44-.92,2.8-1.78,3.99-.86,1.19-1.89,2.25-3.07,3.12-1.37,1.02-2.84,1.9-4.4,2.61-1.89.87-3.83,1.62-5.81,2.25-3.61,1.15-7.29,2.08-11.01,2.81-4.55.92-9.13,1.69-13.73,2.41-4.11.64-8.22,1.29-12.29,2.11-2.88.55-5.73,1.29-8.52,2.19-2.69.85-5.24,2.07-7.59,3.62-3.08,2.05-5.45,4.99-6.79,8.43-.37.9-.69,1.83-.94,2.77-.81,3.07-1.14,6.25-.98,9.43.06.62.51,1.13,1.12,1.28.83.21,1.65.45,2.49.63,2.98.67,5.92,1.54,8.84,2.41,6.1,1.79,12.08,3.96,17.91,6.5,2.35,1.04,4.66,2.14,6.93,3.35,2.91,1.55,5.71,3.31,8.37,5.27,5.21,3.85,10.31,7.85,15.41,11.85,6.85,5.37,13.64,10.74,20.49,16.06,2.8,2.17,5.67,4.25,8.54,6.34,2.67,1.97,5.47,3.75,8.4,5.32,1.73.91,3.39,1.95,5.06,2.97,3.95,2.44,7.88,4.91,11.83,7.36,7.69,4.76,15.45,9.41,23.39,13.76,5.14,2.82,10.35,5.53,15.65,8.03,7.7,3.73,15.69,6.85,23.88,9.34.24.05.45.2.58.41.05.11.06.23.04.34m38.45-53.07c-.19.58-.41,1.15-.63,1.72-4.25,11.04-8.51,22.09-12.77,33.13-.22.57-.49,1.11-.77,1.66-.25.28-.61.42-.98.4-.24-.03-.48-.08-.71-.15-2.17-.83-4.33-1.66-6.49-2.5-.11-.04-.21-.13-.32-.18-.49-.24-.75-.71-.4-1.78.03-.08.27-.77.54-1.46,2.89-7.52,5.78-15.03,8.68-22.54.22-.57.38-1.16.56-1.74.02-.37-.12-.72-.39-.98-.32-.16-.64-.35-.98-.49-2.85-1.11-5.69-2.22-8.54-3.31-.35-.1-.71-.18-1.07-.24-.37-.03-.72.14-.92.45-.26.55-.54,1.09-.76,1.66-2.69,6.94-5.37,13.88-8.05,20.83-.22.7-.55,1.36-.98,1.95-.14.21-.39.32-.65.28-.24,0-.48-.04-.71-.1-2.28-.86-4.56-1.73-6.85-2.62-.11-.06-.21-.13-.3-.2-.32-.18-.51-.54-.46-.9.28-.81.54-1.62.85-2.41,2.67-6.95,5.35-13.89,8.02-20.84.17-.45.27-.93.4-1.4,0-.36-.16-.71-.44-.95-.33-.16-.65-.34-.98-.49-3.88-1.5-7.75-2.99-11.63-4.47-.23-.06-.47-.12-.71-.16-.37-.02-.72.17-.91.49-.29.67-.59,1.34-.86,2.02-2.91,7.51-5.81,15.02-8.71,22.53-.35.91-.73,1.81-1.11,2.7-.26.42-.77.62-1.25.49-.8-.3-1.61-.58-2.4-.9-1.73-.6-3.43-1.29-5.09-2.06-.27-.25-.42-.61-.41-.98.1-.35.19-.71.32-1.05,1.09-2.85,2.19-5.69,3.3-8.54,3.43-8.88,6.85-17.76,10.27-26.63.22-.57.49-1.11.75-1.66.23-.29.57-.45.93-.44.48.07.96.2,1.4.4l23.96,9.21,26.34,10.15c.34.13.69.25,1.02.4,1.07.49,1.11.89.85,1.69m9.59-54.3c-.35,2.66-.67,5.32-1.04,7.98-.35,2.54-.73,5.07-1.11,7.6-.29,1.95-.49,3.87-.79,5.8-.42,2.52-.64,5.08-1.02,7.61-.51,3.38-.84,6.77-1.47,10.13-.14.47-.56.81-1.06.84h-.36c-2.56-.2-5.1-.55-7.62-1.04-.29-.21-.51-.52-.6-.87.04-1.7.2-3.4.49-5.09.37-2.53.73-5.07,1.08-7.6.08-.6.08-1.22.12-1.83-.08-.48-.41-.89-.86-1.07-.24-.05-.49-.12-.72-.15-3.27-.43-6.54-.87-9.78-1.36-2.54-.38-5.09-.65-7.63-1s-5.08-.72-7.62-1.08c-1.96-.27-3.87-.55-5.8-.82-2.54-.34-5.09-.66-7.63-1.01-2.18-.29-4.36-.61-6.53-.91-.12,0-.23-.06-.36-.09-.44-.2-.76-.6-.85-1.08.02-.73.07-1.46.17-2.19.33-1.92.56-3.86.8-5.8.09-.48.23-.94.4-1.4.16-.33.48-.55.84-.61,1.33.15,2.67.28,4,.46,2.54.35,5.08.71,7.62,1.09,2.18.32,4.37.53,6.53.9,1.68.29,3.39.44,5.09.66v.03c4.36.58,8.72,1.16,13.08,1.75,2.54.35,5.08.75,7.61,1.1.85.12,1.7.16,2.55.22.49-.07.89-.43,1.02-.91.33-2.28.65-4.57.98-6.88.32-2.29.63-4.59.95-6.89.06-.24.14-.46.24-.68.2-.3.51-.52.86-.6h.37c2.18.29,4.36.58,6.53.88.36.07.71.16,1.06.27.48.13.82.57.82,1.06-.11.84-.23,1.69-.35,2.53m-.36-17.87c-.36.08-.71.18-1.08.22-.73.1-1.47.19-2.19.24-1.83.13-3.66.28-5.48.56-.85.13-1.71.15-2.56.24-1.34.13-2.67.27-4.01.41-.37.04-.73.1-1.09.14l-10.22.98c-.98.09-1.96.21-2.93.32l-3.29.34-4.4.46-2.56.25-4.74.49-2.56.25c-1.58.16-3.16.35-4.74.49-1.47.13-2.93.21-4.4.3-.51.02-.95-.33-1.05-.82-.14-.72-.3-1.43-.39-2.16-.13-1.09-.19-2.19-.28-3.28h.03c-.14-1.21-.29-2.44-.43-3.64-.09-.62.16-1.24.66-1.62.87-.68,1.75-1.33,2.64-1.98l28.42-20.79c.73-.46,1.4-.99,2-1.6.18-.18.19-.46.03-.65-.07-.08-.17-.14-.28-.16-.24-.06-.48-.08-.72-.08-1.96.08-3.92.25-5.87.53-.36.06-.73.1-1.09.14l-10.59,1.01c-.85.08-1.7.2-2.55.29l-3.29.34c-1.47.15-2.93.32-4.4.45-2.07.18-4.15.33-6.22.49-.12-.02-.24-.04-.36-.07-.35-.1-.64-.34-.79-.67-.43-2.65-.72-5.32-.86-8,0-.86.22-1.46,1.16-1.56,3.16-.33,6.33-.63,9.49-.98.85-.09,1.7-.19,2.55-.28l3.65-.38,4.01-.42c.85-.09,1.7-.2,2.56-.26,1.71-.13,3.42-.27,5.11-.52.98-.15,1.96-.18,2.93-.27l3.29-.32,4.01-.41,3.65-.39c.37-.04.73-.11,1.09-.14l13.52-1.27c.5-.03.95.28,1.12.75.06.23.15.49.19.7.11.72.23,1.46.3,2.18.21,2.06.4,4.13.57,6.2.05.5-.15.99-.54,1.3-.65.54-1.33,1.06-2.04,1.56-9.89,7.18-19.79,14.36-29.69,21.54-.93.58-1.79,1.27-2.56,2.05-.04.11-.04.23,0,.33.03.1.08.2.17.26.1.07.22.11.34.12,1.47-.02,2.94-.13,4.4-.34,1.09-.14,2.19-.25,3.28-.37,1.58-.17,3.16-.33,4.74-.49.98-.1,1.96-.18,2.93-.27,1.34-.14,2.67-.28,4.01-.42.85-.09,1.7-.2,2.56-.26,1.71-.13,3.42-.26,5.11-.52.85-.13,1.71-.16,2.56-.25,1.7-.18,3.42-.36,5.11-.54.49-.08.99-.06,1.47.05.11.05.2.12.28.2.09.08.22.16.24.26.51,2.88.82,5.8.93,8.72-.07.48-.42.88-.89,1.01" style="fill:#f3bb28;"/><path id="Path_1237" d="m592.28,269.92h0l.03.1.03-.06h0l.04-.11-.11.07Z" style="fill:#f3bb28;"/><path id="Path_1238" d="m262.64,538.12h0l.04.11.04-.07h0l.04-.11-.12.07Z" style="fill:#f3bb28;"/><path id="Path_1239" d="m296.07,541.28c-.2.09-.15.13.14.06h0l.06.07.02-.05c-.08-.03-.18-.11-.23-.08" style="fill:#f3bb28;"/><path id="Path_1240" d="m403.56,752.12c-.79-1.38-1.63-2.72-2.48-4.07-1.11-1.76-2.49-3.34-4.09-4.67-.38-.31-.73-.64-1.09-.98s-.24-.76.07-.86c1.05-.34,2.12-.61,3.13-1.02,4.37-1.6,7.42-5.58,7.82-10.21.17-1.46.19-2.93.04-4.39-.16-1.71-.66-3.37-1.47-4.88-1.54-3.13-4.49-5.33-7.93-5.94-2.27-.49-4.59-.76-6.91-.82-5.63-.07-11.25-.24-16.88-.49-.86-.04-1.71-.04-2.57-.03-.24.02-.48.06-.72.11-.34.12-.62.37-.78.7-.2.96-.28,1.95-.23,2.93-.17,6.83-.18,13.67-.61,21.11-.15,6.83-.32,14.29-.49,21.73.01.36.04.73.09,1.09.12.35.36.64.69.8.23.08.46.14.7.19,2.19.18,4.4.23,6.6.17.49-.04.92-.38,1.06-.85.05-.36.14-.72.15-1.08.17-4.52.33-9.03.49-13.54.03-.98.05-1.95.07-2.93.02-1.6.6-1.81,2.09-1.78,1.1.05,2.19.19,3.27.42,1.46.28,2.77,1.05,3.71,2.19.48.55.93,1.13,1.33,1.74.94,1.43,1.86,2.87,2.75,4.33,1.91,3.13,3.79,6.28,5.67,9.41.38.63.73,1.27,1.15,1.87.33.53.89.87,1.52.91,2.93.06,5.87.11,8.8.16.12-.01.24-.05.35-.11.23-.08.38-.31.37-.56-.06-.48-.22-.95-.49-1.36-1.73-3.09-3.42-6.19-5.19-9.27m-12.4-17.39h-5.49v.04c-1.71-.05-3.42-.09-5.12-.15-.36-.03-.73-.08-1.09-.14-.46-.16-.81-.54-.93-1.02,0-.37-.05-.73-.04-1.09.11-2.8.23-5.6.35-8.4,0-.12,0-.24.03-.36.03-.63.52-1.13,1.15-1.17.61,0,1.22-.05,1.83-.04,2.81.05,5.61.12,8.42.2,1.1.03,2.19.19,3.25.49,2.07.55,3.57,2.32,3.79,4.45.09.85.07,1.71-.06,2.55-.25,1.99-1.65,3.65-3.56,4.24-.81.27-1.66.42-2.51.43" style="fill:#f3bb28;"/><path id="Path_1241" d="m559.73,723.51c-1.11-.52-2.27-.9-3.47-1.13-2.39-.49-4.83-.77-7.28-.82-2.57-.06-5.13-.27-7.67-.64-.84-.11-1.66-.34-2.44-.66-1.16-.44-2.05-1.4-2.42-2.58-.24-.7-.23-1.46.05-2.14.27-.68.69-1.3,1.22-1.8.62-.59,1.34-1.07,2.12-1.43,1.77-.84,3.69-1.31,5.65-1.41,2.25-.2,4.43.81,5.73,2.65.36.5.68,1.02.98,1.55.27.71,1.05,1.1,1.78.88,2.39-.49,4.74-1.15,7.08-1.86.3-.21.5-.53.54-.89-.54-2.27-1.63-4.36-3.19-6.1-1.63-1.84-3.74-3.19-6.09-3.9-1.65-.5-3.38-.73-5.11-.67-2.68,0-5.34.4-7.9,1.18-1.53.42-3,1-4.4,1.74-1.19.62-2.3,1.39-3.3,2.29-2.56,2.33-4.07,5.6-4.21,9.05-.14,5.79,3.45,11.01,8.92,12.95,2.32.77,4.73,1.23,7.18,1.37,1.34.1,2.68.13,4.03.17,2.08.09,4.15.3,6.2.62.85.13,1.66.42,2.39.87,1.08.62,1.82,1.7,2.02,2.93.5,2.46-.52,4.99-2.59,6.42-.39.3-.8.55-1.24.77-2.41,1.25-5.13,1.73-7.82,1.4-.36-.05-.72-.13-1.07-.24-1.41-.44-2.67-1.24-3.67-2.33-.66-.72-1.23-1.52-1.71-2.37-.26-.55-.57-1.08-.93-1.57-.26-.26-.62-.38-.98-.33-2.26.53-4.43,1.36-6.64,2.07-.11.05-.22.11-.32.17-.45.21-.68.71-.56,1.19.93,2.92,2.54,5.57,4.7,7.75,1.38,1.39,3.03,2.48,4.86,3.2,2.63,1.03,5.47,1.41,8.27,1.11,2.19-.21,4.36-.62,6.47-1.22,2.36-.65,4.61-1.66,6.66-2.99,2.16-1.42,3.86-3.43,4.89-5.8.79-1.79,1.22-3.72,1.28-5.67.04-2.57-.52-5.12-1.62-7.44-1.27-2.81-3.53-5.06-6.36-6.32" style="fill:#f3bb28;"/><path id="Path_1242" d="m357.21,713.1c-.49-.07-.98-.16-1.47-.2-1.34-.12-2.69-.16-4.02-.33-1.82-.23-3.65-.38-5.48-.49-.86-.05-1.71-.09-2.56-.21-1.96-.28-3.91-.4-5.87-.53-1.1-.08-2.19-.21-3.29-.32l-3.29-.31c-1.83-.17-3.65-.34-5.48-.49-.36-.03-.73,0-1.09.07-.23.07-.43.22-.56.41-.14.2-.23.43-.25.67-.23,3.17-.73,6.31-.87,9.48-.04.98-.19,1.95-.28,2.93-.11,1.09-.24,2.19-.31,3.28-.13,1.95-.26,3.9-.53,5.86-.12.84-.15,1.7-.22,2.55-.33,3.9-.65,7.8-.98,11.68-.04.49-.13.98-.18,1.46-.1.98-.19,1.95-.27,2.93-.16,1.83-.31,3.65-.46,5.48v.37c0,.49.29.94.74,1.14,1.06.29,2.16.45,3.26.49,1.58.13,3.18.16,4.76.36,2.19.27,4.4.44,6.58.59.86.06,1.71.17,2.56.25,1.1.11,2.19.24,3.29.32,2.08.14,4.15.33,6.22.56,2.06.23,4.15.31,6.22.43.25.02.49-.02.72-.11.21-.1.49-.29.52-.49.4-2.04.65-4.1.73-6.17.04-.63-.4-1.19-1.02-1.31-.36-.05-.72-.13-1.09-.16-2.2-.13-4.4-.32-6.58-.61-.73-.1-1.47-.11-2.2-.18-1.71-.15-3.42-.32-5.11-.49-1.22-.11-2.44-.2-3.66-.3-1.1-.09-2.2-.15-3.29-.27-.6-.07-1.19-.24-1.79-.36-.33-.14-.59-.42-.7-.77-.03-.49-.03-.98,0-1.46.35-2.93.58-5.83.78-8.76,0-.24.08-.49.12-.72.09-.62.61-1.09,1.24-1.12.98.07,1.96.17,2.93.23,2.32.15,4.63.38,6.94.6,3.16.31,6.36.49,9.5.86.36.04.73.04,1.1.05.7.14,1.39-.32,1.53-1.02,0-.05.02-.09.02-.14.13-.98.27-1.95.36-2.93s.12-1.95.19-2.93c-.05-.49-.37-.9-.83-1.06-2.18-.31-4.36-.59-6.56-.73-1.34-.08-2.68-.2-4.02-.32-1.7-.15-3.41-.31-5.11-.49-1.47-.14-2.93-.3-4.4-.45-.24-.02-.49-.07-.72-.11-.63-.05-1.11-.58-1.1-1.21.02-2.81.28-5.61.76-8.38,0-.12.04-.24.11-.35.16-.18.35-.41.55-.44.49-.07.98-.1,1.47-.06,4.52.24,9.01.82,13.53,1.14,1.58.12,3.16.31,3.91.39,1.83.11,2.8.17,3.78.21.24-.02.48-.05.72-.09.34-.12.62-.37.78-.7.33-2.05.38-4.13.58-6.19-.07-.49-.39-.9-.85-1.08" style="fill:#f3bb28;"/><path id="Path_1243" d="m522.28,753.19c-4.34-8.6-8.69-17.19-13.04-25.78-2.48-4.88-4.96-9.77-7.44-14.68-.25-.56-.55-1.09-.91-1.58-.23-.28-.56-.46-.93-.49-.49-.03-.98-.03-1.47,0-2.32.13-4.61.52-6.91.82-.12,0-.24.05-.34.12-.19.15-.43.29-.49.49-.68,1.96-1.23,3.95-1.66,5.98-2.82,10.97-5.63,21.96-8.42,32.94-.78,3.07-1.58,6.14-2.36,9.2-.05.24-.05.48,0,.71.03.25.22.45.46.49,2.07,0,4.14-.12,6.2-.4.73-.08,1.45-.21,2.16-.41.36-.1.65-.36.79-.71.14-.33.26-.68.35-1.03.61-2.61,1.2-5.22,1.8-7.84.08-1.03.92-1.83,1.96-1.87.61-.04,1.21-.18,1.81-.23,4.5-.39,8.99-.89,13.48-1.41.24-.03.49-.03.73,0,.37.01.71.19.93.49.21.3.41.6.58.92,1.03,2.07,2.04,4.16,3.07,6.24.32.65.66,1.31,1.04,1.95.27.42.74.67,1.24.64.61,0,1.22-.05,1.83-.08,1.83-.1,3.65-.31,5.46-.61.24-.03.48-.08.71-.15.23-.06.44-.19.6-.37.1-.23.1-.48,0-.71-.38-.89-.79-1.78-1.23-2.65m-18.24-13.81c-.32.17-.66.29-1.02.34-2.78.31-5.57.6-8.36.88-.14.02-.27.02-.41,0-1.03.04-1.51-.45-1.4-1.08.04-.24.06-.49.11-.72.17-.71.35-1.42.51-2.13.82-3.55,1.63-7.11,2.44-10.66.17-.71.41-1.4.63-2.09.03-.1.11-.19.21-.23.25-.04.5.06.65.26.09.08.16.18.22.28,2.2,4.61,4.39,9.22,6.57,13.84.09.23.13.47.14.71.02.25-.1.48-.32.6" style="fill:#f3bb28;"/><path id="Path_1244" d="m316.71,709.82c-.33-.16-.67-.3-1.02-.41-1.43-.32-2.87-.61-4.31-.9-.84-.17-1.68-.33-2.52-.49-.62-.1-1.24.2-1.54.75-.19.31-.38.62-.56.94-.49.85-.98,1.7-1.43,2.55-4.66,8.3-9.33,16.6-14,24.89-.3.67-.69,1.29-1.18,1.84-.09.07-.2.12-.31.15-.26.08-.44-.04-.49-.35-.3-1.56-.52-3.13-.66-4.71-.13-1.46-.32-2.93-.49-4.37-.09-.85-.18-1.7-.26-2.55-.33-3.16-.61-6.32-.98-9.47-.49-4.12-.94-8.24-1.35-12.37-.06-.48-.15-.96-.27-1.43-.11-.35-.36-.64-.69-.81-.21-.13-.43-.23-.67-.28-2.39-.51-4.78-1.01-7.18-1.49-.24-.02-.48,0-.72.04-.16.17-.42.31-.49.49-.08.36-.1.73-.05,1.09.13,1.09.32,2.18.44,3.26.34,2.93.62,5.83,1.01,8.73.53,3.99,1.03,7.99,1.47,11.99.02.24.06.49.09.73.38,2.93.77,5.81,1.12,8.72.35,2.91.66,5.82,1,8.73.23,1.95.49,3.87.75,5.81.14.6.58,1.09,1.16,1.3,2.63.55,5.26,1.09,7.89,1.63.12.03.24.03.36,0,.23-.05.45-.15.65-.29.59-.62,1.08-1.33,1.44-2.1,7.66-12.92,15.31-25.84,22.96-38.77.37-.63.72-1.27,1.08-1.92.15-.35.03-.76-.28-.98" style="fill:#f3bb28;"/><path id="Path_1245" d="m472.76,713.19c-.61-.05-1.22-.06-1.82-.04-3.42.26-6.85.35-10.27.45-2.08.06-4.16.1-6.23.25-3.91.29-7.82.39-11.74.51-1.22.04-2.44.09-3.67.15-.36,0-.72.1-1.09.15-.49.1-.88.48-.98.98-.11,2.07-.04,4.15.22,6.2.12.48.5.85.98.98.61,0,1.22.03,1.82,0,2.93-.12,5.87-.25,8.8-.36.48-.01.97.05,1.44.17.2.05.38.3.49.49.1.22.16.46.17.71.22,4.02.53,8.03.63,12.06.07,2.81.15,5.61.32,8.41.21,3.29.35,6.58.45,9.87.05,1.71.11,3.42.18,5.12,0,.61.07,1.22.13,1.83.04.24.09.48.16.71.16.32.44.57.78.7,2.44.14,4.88.03,7.3-.31.63-.07,1.1-.62,1.07-1.25,0-3.54-.14-7.07-.34-10.61-.15-2.8-.3-5.6-.45-8.4h.05c-.05-1.71-.09-3.42-.17-5.12-.08-1.83-.23-3.66-.31-5.48-.11-2.56-.2-5.12-.27-7.68,0-.36.05-.73.17-1.07.09-.23.27-.41.49-.51.34-.14.69-.22,1.06-.23,2.44-.1,4.89-.17,7.33-.26.98-.04,1.96-.11,2.93-.19.24-.04.47-.1.7-.19.32-.17.57-.46.69-.8.13-2.19.03-4.38-.27-6.55-.13-.34-.43-.59-.78-.67" style="fill:#f3bb28;"/><path id="Path_1246" d="m428.27,717.8c0-.73-.07-1.46-.12-2.18-.09-.49-.48-.87-.98-.94-2.43-.17-4.87-.15-7.3.07-.12,0-.24.05-.33.13-.19.15-.34.33-.44.55-.13.47-.19.95-.2,1.43,0,2.93.05,5.86.07,8.79.07,10.96.13,21.92.19,32.87,0,1.1.02,2.19.05,3.29.03.24.08.48.14.71.13.34.4.6.75.72,2.43.17,4.87.17,7.31,0,.62-.11,1.08-.62,1.12-1.24.03-.73.06-1.46.05-2.19-.06-6.83-.12-13.64-.2-21.77-.03-5.86-.07-13.05-.12-20.24" style="fill:#f3bb28;"/><path id="Path_1247" d="m333.59,506.11c-.45-.41-.94-.76-1.47-1.06-.75-.42-1.57-.69-2.42-.8-2.2-.35-4.44.32-6.09,1.82-.27.25-.5.53-.71.83-.64.91-.9,2.02-.74,3.11.16,1.22.81,2.33,1.8,3.06,1.43,1.07,3.2,1.61,4.99,1.5.39-.05.98-.1,1.59-.23,1.57-.31,2.95-1.24,3.83-2.58.2-.3.36-.63.46-.98.55-1.66.06-3.5-1.24-4.67" style="fill:#f3bb28;"/><path id="Path_1248" d="m571.47,577.95c-.61-1.19-1.31-2.33-2.08-3.42-2.4-3.37-5.16-6.48-8.22-9.27-.82-.73-1.67-1.42-2.56-2.06-1.19-.85-2.49-1.54-3.86-2.05-1.28-.5-2.64-.74-4.01-.73-1.81-.05-3.61.38-5.19,1.26-.65.33-1.28.71-1.88,1.13-.81.55-1.59,1.14-2.34,1.76-2.41,2.06-4.8,4.14-7.18,6.23-.17.17-.32.36-.45.57-.14.2-.17.46-.07.68.29.54.66,1.04,1.11,1.46,7.27,8.21,14.55,16.42,21.83,24.63.57.65,1.14,1.28,1.71,1.9.16.18.35.35.52.52.38.32.94.34,1.34.04,2.74-2.44,5.49-4.83,8.21-7.28.72-.66,1.39-1.37,2.02-2.11,1.46-1.66,2.44-3.68,2.84-5.86.14-.72.14-1.46,0-2.18-.32-1.8-.91-3.54-1.74-5.17" style="fill:#f3bb28;"/><path id="Path_1249" d="m312.48,583.87c-.24,0-.48.06-.7.15-.21.11-.42.25-.6.41-5.09,3.78-10.18,7.57-15.27,11.36-.28.23-.55.48-.8.74-.18.16-.2.43-.04.61.01.01.02.02.04.04.23.28.49.53.78.74,3.46,2.28,6.93,4.56,10.41,6.83.21.13.43.23.64.36.45.22,1,.04,1.23-.41.07-.23.19-.45.24-.68.65-2.85,1.31-5.69,1.98-8.54.82-3.56,1.63-7.12,2.44-10.68.08-.39-.1-.93-.32-.92" style="fill:#f3bb28;"/><path id="Path_1250" d="m331.28,219.26c.13,2.44.34,4.88.52,7.29,0,.24.11.49.15.71.15.33.5.52.86.49.12-.02.24-.05.36-.08,3.73-1.52,7.45-3.04,11.17-4.57.21-.12.41-.25.6-.41.27-.26.31-.67.09-.98-.3-.38-.59-.78-.91-1.14-3.91-4.36-7.82-8.72-11.74-13.07-.24-.27-.5-.53-.77-.78-.19-.16-.45-.2-.68-.09-.08.07-.23.13-.24.21-.15,1.21-.13,2.43.06,3.64.28,2.93.38,5.86.53,8.76" style="fill:#f3bb28;"/><path id="Path_1251" d="m839.7,415.57l-.45-.49v-.42h-.38l-1.08-1.21c-6.65-7.66-14.7-13.98-23.74-18.62-6.49-3.25-13.55-5.22-20.78-5.79-6.41-.55-12.86.21-18.96,2.22-2.1-9.56-6.63-18.42-13.15-25.72-5.17-5.5-11.66-9.59-18.85-11.89-7.7-2.5-15.88-3.22-23.9-2.09l-2.33.42,1.63,1.71c6.24,7.38,10.03,16.51,10.85,26.13.57,4.67.7,9.37.41,14.07h-33.71c-.23-2.89-.64-5.78-.82-8.68-.52-2.76-.55-5.59-1.13-8.35-.6-5.1-1.53-10.14-2.53-15.16-1.7-8.5-3.79-16.9-6.29-25.21-6.93-23.19-16.93-45.36-29.72-65.92-29.79-47.85-73.34-85.63-124.97-108.4-14.12-6.17-28.73-11.15-43.68-14.89-5.34-1.34-10.72-2.51-16.14-3.5-3.73-.69-7.46-1.33-11.22-1.84-2.3-.32-4.61-.57-6.91-.9-1.47-.21-2.93-.36-4.38-.49-2.44-.22-4.89-.49-7.31-.72-.76-.05-1.34-.7-1.29-1.46,0,0,0,0,0,0,0-.49-.04-.98-.04-1.46,0-6.83,0-13.67,0-20.5,0-.49,0-.98.03-1.46,0-.24.07-.49.1-.72.13-.33.39-.6.73-.74,2.54-.38,5.12-.5,7.68-.34,1.47.06,2.93.19,4.4.27,4.77.28,9.49,1.1,14.07,2.44,5.93,1.59,11.46,4.38,16.26,8.2.28.23.6.41.9.62.32.15.71.01.86-.31,0,0,0,0,0-.01.51-2.89.66-5.83.44-8.75-.06-.98-.2-1.95-.26-2.93-.23-3.04-.76-6.06-1.58-9-2.83-11.14-9.74-20.81-19.36-27.11-3.36-2.23-6.96-4.1-10.72-5.57-3.07-1.22-6.22-2.23-9.42-3.02-.35-.11-.69-.24-1.01-.41-.32-.19-.49-.56-.42-.92.2-.7.41-1.41.62-2.11,1.32-4.58,1.99-9.33,2-14.1-.04-2.2-.2-4.39-.49-6.57-.26-2.3-.69-4.59-1.28-6.83-1.55-6.04-4-11.82-7.28-17.13-4.17-6.78-9.29-12.94-15.2-18.28-.09-.08-.19-.15-.29-.22-.19-.15-.45-.2-.67-.11h0V-.01l-2.07,1.85c-7.45,6.44-13.59,14.24-18.09,22.99-3.16,6.29-5.07,13.13-5.63,20.15-.53,6.2.2,12.45,2.16,18.37-9.29,2.03-17.9,6.42-25,12.74-5.35,5.01-9.33,11.29-11.56,18.26-2.43,7.46-3.13,15.38-2.03,23.15l.41,2.25,1.67-1.58c7.18-6.05,16.07-9.72,25.43-10.5,4.54-.55,9.13-.68,13.69-.4v32.52c-1.21.08-2.42.16-3.63.22-.37,0-.73.06-1.1.11-3.27.46-6.57.65-9.85,1.08-2.55.34-5.1.66-7.63,1.05-4.83.75-9.64,1.62-14.44,2.61-35.56,7.35-69.3,21.68-99.27,42.16-20.23,13.81-38.55,30.2-54.51,48.76-28.34,32.77-48.51,71.76-58.87,113.8-1.23,4.97-2.32,9.98-3.23,15.03-.57,3.12-1.11,6.25-1.59,9.39-.47,3.14-.93,6.28-1.28,9.43-.32,2.93-.67,5.82-.88,8.75,0,.12-.03.24-.05.36-.03.12-.08.23-.11.35-.15.47-.53.83-1.01.94-.49.04-.98.1-1.47.1h-24.22c-.49,0-.98-.05-1.47-.08-.47-.14-.84-.51-.98-.98-.07-.49-.15-.98-.2-1.46-.2-2.44-.22-4.88-.05-7.32.07-1.1.2-2.19.25-3.29.22-3.66.76-7.29,1.62-10.85,1.48-7.08,4.59-13.72,9.09-19.4.21-.29.4-.6.57-.92.16-.26-.13-.77-.45-.83-1.46-.22-2.93-.33-4.4-.32-6.25-.24-12.49.58-18.46,2.44-9.56,2.93-17.89,8.9-23.74,16.99-1.44,1.98-2.74,4.05-3.89,6.21-2.07,3.89-3.73,7.98-4.96,12.2-.35,1.17-.62,2.36-.98,3.53-.1.35-.27.68-.49.98-.15.19-.38.29-.62.3-.48-.07-.96-.18-1.42-.34-3.38-1.07-6.89-1.73-10.43-1.95-.73-.04-1.47-.12-2.2-.18-1.46-.11-2.94-.11-4.4,0-.86.06-1.71.15-2.56.2-3.78.28-7.52.99-11.15,2.1-5.98,1.79-11.67,4.45-16.88,7.89-5.93,3.9-11.35,8.53-16.14,13.77-.16.18-.3.38-.41.6-.03.1-.04.21-.02.32-.02.24.15.46.4.49.02,0,.03,0,.05,0,.36.06.72.1,1.09.13h136.91c.17,0,.33,0,.49.03H0l1.85,2.07c6.45,7.45,14.27,13.59,23.03,18.1,6.3,3.15,13.14,5.06,20.17,5.62,6.22.53,12.48-.2,18.4-2.15,2.03,9.28,6.43,17.87,12.76,24.96,5.02,5.34,11.31,9.31,18.29,11.54,7.48,2.43,15.41,3.12,23.19,2.03l2.26-.41-1.58-1.66c-6.06-7.17-9.73-16.04-10.52-25.38-.55-4.53-.69-9.11-.4-13.67h33.69c.11,2.02.25,4.04.53,6.05.13,3.42.63,6.83,1.05,10.2.51,4.12,1.13,8.22,1.85,12.31,1.22,6.92,1.99,10.79,3.34,16.5,2.9,12.36,6.68,24.5,11.3,36.33.27.68.49,1.37.76,2.06.12.35.12.73,0,1.08-.27.81-.59,1.6-.88,2.41-2.9,8.17-5.03,16.6-6.36,25.17-.38,2.41-.66,4.84-.98,7.26-.22,1.7-.38,3.42-.49,5.11-.1,1.83-.22,3.66-.31,5.49-.07,1.59-.13,3.17-.16,4.76-.04,2.44,0,4.88.22,7.32.07.98.12,1.95.17,2.93,0,.36-.02.73-.04,1.09s-.53.57-.83.43c-1.18-.65-2.3-1.38-3.36-2.2-.46-.4-1.01-.69-1.59-.87-.25-.06-.5.09-.56.33,0,0,0,0,0,0-.16,1.58-.11,3.17.15,4.73.24,2.19.41,4.39.53,6.57.05.85.09,1.71.19,2.56.33,3.04.41,6.09.49,9.14.12,6.59.1,13.18,0,19.78-.1,5.98-.67,11.95-.91,17.93,0,.12,0,.24-.03.37-.32,2.55-.43,5.11-.57,7.67-.06,1.1-.13,2.2-.24,3.29-.43,5.11-.53,10.25-.29,15.37,0,.49.05.98.1,1.46.49,4.88,1.03,9.71,1.96,14.51.05.24.1.49.17.71.1.36.34.66.66.85.51.33,1.04.63,1.59.9,4.48,2.25,8.95,4.52,13.44,6.74,7.89,3.9,15.84,7.68,23.9,11.23.67.29,1.33.62,1.96.98.44.25.69.72.67,1.22,0,.37,0,.73-.04,1.1-.17,1.83-.33,3.65-.52,5.47-.1.98-.24,1.95-.38,2.93-.28,2.05-.58,4.1-.86,6.16-.07.38.1.76.42.98.4.29.82.54,1.26.75,2.1.98,4.2,1.98,6.33,2.93,8.97,3.9,18.13,7.32,27.44,10.34,3.26,1.05,6.53,2.05,9.82,2.99.59.17,1.15.4,1.73.61.46.19.76.64.75,1.13-.16,1.7-.26,3.42-.52,5.1-.49,3.26-1.01,6.51-1.74,9.73-.23,1.08-.39,2.17-.49,3.26.03.24.17.45.37.59.29.22.62.39.98.49,4.4,1.12,8.76,2.25,13.2,3.22,5.13,1.13,10.27,2.28,15.4,3.37,4.07.86,8.15,1.64,12.22,2.44,3.48.67,6.97,1.32,10.45,1.95,3.26.59,6.52,1.16,9.78,1.7,3.62.6,7.25,1.1,10.87,1.74,3.98.7,7.97,1.26,11.97,1.83,4.48.63,8.96,1.27,13.45,1.8,4.01.49,8,1.06,12.02,1.43.37.03.73.07,1.09.14,1.57.28,3.15.4,4.74.52.85.07,1.7.19,2.55.27,1.34.14,2.67.28,4.01.41.85.08,1.71.1,2.56.22,2.18.31,4.4.4,6.58.61,3.91.37,7.82.65,11.71.88.49.03.98.11,1.47.15.98.08,1.96.17,2.93.22l15.76.81c.36,0,.72.12,1.08.17.34.14.6.41.72.76.03.24.09.49.1.72,0,.37.03.73.03,1.1v26.75c0,.61-.07,1.22-.12,1.83-.1.49-.49.88-.98.98-.49.05-.98.12-1.47.15-2.93.16-5.87.09-8.8-.03-5.14-.21-10.23-1.02-15.19-2.4-6.19-1.57-11.96-4.46-16.93-8.46-.09-.08-.2-.15-.29-.22l-.3-.21c-.42-.31-1.1-.09-1.14.38-.11,1.22-.26,2.44-.31,3.65-.32,6.48.51,12.96,2.44,19.16,2.9,9.42,8.77,17.65,16.74,23.46,2.56,1.88,5.29,3.53,8.15,4.93,3.63,1.77,7.4,3.21,11.29,4.31,1.06.3,2.12.58,3.18.87.12.03.23.08.35.12.42.26.63.76.53,1.24-2.49,7.83-3.13,16.12-1.87,24.23.59,3.99,1.64,7.9,3.11,11.66,2.26,5.81,5.29,11.29,9.03,16.29,2.77,3.73,5.83,7.24,9.15,10.49.75.74,1.49,1.48,2.23,2.22v1.04l.49-.44c.03.15.03.3,0,.44h.73c.07-.42.14-.84.18-1.27l.75-.66c7.79-6.73,14.22-14.89,18.93-24.04,3.3-6.57,5.29-13.72,5.87-21.05.55-6.49-.21-13.02-2.25-19.21,9.74-2.15,18.75-6.77,26.17-13.42,5.59-5.24,9.75-11.81,12.09-19.09,2.54-7.8,3.27-16.09,2.13-24.21l-.43-2.36-1.75,1.65c-7.5,6.32-16.79,10.16-26.57,10.99-4.74.58-9.53.71-14.3.41v-32.93c3-.08,6-.21,8.99-.34,2.2-.09,4.4-.27,6.6-.35,5.26-.17,10.49-.77,15.75-.98,2.55-.33,5.11-.49,7.68-.63.73-.04,1.47-.13,2.19-.2l5.11-.49c.85-.08,1.71-.14,2.56-.22,1.7-.17,3.42-.35,5.11-.52l2.55-.26,4.01-.44c.98-.11,1.96-.21,2.93-.32l9.11-1.09c2.79-.33,5.58-.66,8.38-1.01,1.96-.24,3.88-.49,5.81-.78,2.54-.36,5.08-.75,7.62-1.11,2.44-.35,4.85-.66,7.27-1.01,1.81-.26,3.62-.56,5.44-.84l7.24-1.17c2.05-.33,4.11-.64,6.15-.98,3.49-.61,6.98-1.23,10.47-1.85,3.37-.6,6.74-1.17,10.11-1.82,4.44-.85,8.87-1.76,13.31-2.63,4.92-.98,9.78-2.08,14.67-3.17.49-.11.93-.28,1.4-.43.12-.04.22-.11.33-.15.3-.2.48-.53.49-.89-.36-2.93-.95-5.77-1.39-8.67-.43-2.78-.64-5.58-1.07-8.35-.17-1.33-.26-2.67-.26-4.01.02-.37.24-.71.57-.88.42-.24.88-.42,1.35-.54,7.66-2.13,15.2-4.62,22.65-7.36,7.23-2.66,14.36-5.55,21.32-8.86.55-.26,1.09-.55,1.61-.86.33-.19.52-.55.49-.93-.07-1.22-.2-2.43-.4-3.63-.57-2.88-.67-5.82-1.09-8.72-.17-.97-.21-1.95-.12-2.93.03-.37.24-.7.56-.89.64-.36,1.29-.68,1.96-.98,11.49-5.15,22.79-10.7,34.01-16.4.66-.33,1.3-.68,1.96-1.02.22-.11.44-.21.65-.34.54-.29.93-.81,1.05-1.42.36-2.17.7-4.33,1.05-6.51.49-3.14.65-6.32,1.05-9.46.23-4.76.18-9.52-.14-14.28-.16-2.19-.31-4.38-.46-6.57-.08-1.1-.1-2.2-.23-3.29-.3-2.55-.41-5.11-.53-7.67-.06-1.34-.11-2.68-.23-4.02-.25-2.93-.36-5.86-.41-8.79-.13-6.72-.13-13.43,0-20.14.06-3.17.14-6.34.49-9.51.11-.98.13-1.95.21-2.93.15-1.95.33-3.9.49-5.86.1-1.34.19-2.68.26-4.02,0-.24-.03-.48-.1-.71-.06-.24-.3-.4-.55-.34,0,0,0,0,0,0-.35.09-.68.24-.98.45-1.71,1.18-3.42,2.38-5.11,3.56-.4.28-.83.51-1.28.69-.22.09-.47-.01-.56-.23,0,0,0-.02,0-.03-.16-.59-.16-1.21,0-1.81.33-2.05.54-4.12.63-6.19.06-1.1.18-2.19.24-3.29.1-1.71.2-3.42.26-5.12.07-5.98-.18-11.97-.75-17.92-.57-4.23-1.09-8.47-1.89-12.69-1.33-7.2-3.24-14.28-5.7-21.18-.17-.46-.29-.93-.43-1.4-.1-.35-.1-.73,0-1.08.16-.59.35-1.17.55-1.74,2.08-5.86,4.01-11.78,5.74-17.76,3.02-10.56,5.41-21.29,7.15-32.13.3-1.95.53-3.87.87-5.79.49-2.77.71-5.57,1.06-8.36.41-3.27.61-6.56.9-9.84.02-.37.09-.73.2-1.07.1-.22.27-.39.49-.49.58-.18,1.2-.25,1.81-.2h26.41c.37,0,.73,0,1.1.05.12,0,.23.08.35.09.34.13.62.38.78.71.08.61.21,1.21.23,1.81.17,4.15.03,8.3-.43,12.43-.42,4-1.18,7.97-2.27,11.85-1.58,5.92-4.37,11.44-8.2,16.23-.23.28-.4.61-.61.91s.12.8.4.9c.7.23,1.43.36,2.16.37,3.79.22,7.59.08,11.35-.41,3.52-.46,6.98-1.25,10.35-2.37,8.9-2.93,16.67-8.52,22.27-16.02,2.42-3.23,4.47-6.72,6.11-10.4,1.55-3.45,2.82-7.03,3.78-10.69.18-.84.45-1.66.81-2.44.1-.23.34-.36.59-.34.83.19,1.66.4,2.48.64,3.05.91,6.19,1.49,9.36,1.72,4.15.34,8.32.2,12.44-.41,4.47-.69,8.86-1.87,13.07-3.53,5.57-2.23,10.81-5.19,15.61-8.79,3.63-2.7,7.05-5.68,10.22-8.9.97-.9,1.84-1.89,2.62-2.96l.88.08Zm-700.34,17.23h-34.15l-.12,1.1c-.44,5.09-.34,10.21.3,15.27.76,9.08,4.09,17.76,9.61,25.02-6.65.56-13.35-.2-19.71-2.22-6.58-2.1-12.52-5.85-17.25-10.88-6.34-7.14-10.66-15.84-12.51-25.21l-.34-1.46-1.38.62c-5.98,2.21-12.38,3.05-18.72,2.47-6.68-.56-13.18-2.4-19.16-5.42-7.61-3.9-14.48-9.11-20.28-15.38h133.73v16.09ZM383.94,105.19c-9.1.75-17.79,4.08-25.07,9.59-.56-6.64.2-13.33,2.22-19.68,2.11-6.57,5.86-12.5,10.9-17.22,7.16-6.32,15.87-10.63,25.25-12.46l1.47-.34-.62-1.38c-2.21-5.97-3.06-12.35-2.47-18.69.56-6.68,2.4-13.18,5.43-19.16,3.91-7.6,9.13-14.45,15.41-20.25v133.45h-.24c-.74,0-1.47,0-2.22.03h-13.65v-34.07l-1.11-.12c-5.1-.44-10.23-.34-15.3.3m-225.99,466.99c.04-2.44.04-4.88.09-7.32.02-1.71.13-3.42.35-5.11.08-.61.14-1.22.19-1.82.75-8.64,2.31-17.19,4.65-25.54.22-.7.47-1.39.75-2.06.03-.09.15-.15.22-.22.12.02.24.05.35.1.3.2.54.49.67.83,1.98,4.33,4.07,8.61,6.26,12.84,12.66,24.31,28.86,46.61,48.08,66.17,2.82,2.88,5.76,5.65,8.64,8.48.48.38.88.84,1.21,1.36.06.11.08.23.06.36,0,.07-.15.14-.25.16-.36.08-.73.07-1.08-.05-5.66-1.56-11.25-3.3-16.78-5.31-17.59-6.43-34.33-14.95-49.88-25.38-.61-.41-1.2-.84-1.78-1.28-.49-.37-.8-.94-.85-1.56-.59-4.85-.89-9.73-.9-14.61m28.61,50.57c.09,1.46.18,2.93.29,4.39.04.61.16,1.21.2,1.82.33,4.88.65,9.76.98,14.64.18,2.8.32,5.61.46,8.41.1,2.07.2,4.15.25,6.22.16,5.37.31,10.74.44,16.11.15,6.23.17,12.46-.1,18.68-.03.73-.09,1.46-.19,2.19-.03.24-.15.46-.33.62-.21.12-.46.15-.7.08-.8-.29-1.6-.61-2.37-.98-5.64-2.65-11.3-5.27-16.92-7.97-4.19-2.01-8.31-4.11-12.49-6.17-.77-.38-1.53-.76-2.28-1.17-.56-.27-.97-.77-1.11-1.38-.13-.6-.31-1.19-.39-1.79-.57-3.74-.94-7.51-1.1-11.29-.03-1.95-.08-3.9-.12-5.6.25-4.65.23-9.05.77-13.42,0-.12.03-.24.03-.37.23-5.37.82-10.74.98-16.11.1-3.17.24-6.34.36-9.52.22-6.23.22-12.45-.05-18.68-.21-2.68-.27-5.36-.19-8.04.04-.24.25-.42.49-.41.24,0,.48.08.68.21,1.03.66,2.04,1.34,3.06,2.03,12.17,8.2,25.06,15.28,38.51,21.16,10.3,4.52,20.94,8.22,31.83,11.08,4.02,1.04,8.06,2.02,12.16,2.72.49.08.98.2,1.43.32.6.14,1.16.4,1.65.77l.87.68,8.97,6.98c.39.29.77.61,1.12.94.17.18.28.4.31.64.18,1.46.18,2.93,0,4.39-.13.34-.44.57-.81.59-.73-.03-1.46-.16-2.16-.38-4.6-1.27-9.17-2.61-13.69-4.05-12.01-3.82-23.8-8.21-35.37-13.18-4.04-1.74-8-3.67-11.99-5.52-.78-.36-1.56-.68-2.35-1.01-.43-.15-.89.08-1.04.51-.01.04-.03.09-.03.13,0,.24-.05.49-.03.73m49.07,105.83c0,.85-.08,1.7-.26,2.54-.17.46-.65.74-1.13.67-1.06-.27-2.13-.53-3.18-.84-11-3.29-21.82-7.19-32.4-11.67-1.12-.49-2.22-1.01-3.33-1.52-.44-.23-.72-.69-.72-1.18-.03-.24-.03-.49,0-.73.13-1.33.27-2.67.42-4.01.07-.61.19-1.21.22-1.82.25-4.88.77-9.73.86-14.64.2-10.38.17-20.75-.09-31.12-.04-1.95-.17-3.9-.26-5.86-.11-2.56-.23-5.12-.32-7.68-.1-2.81-.24-5.61-.45-8.41-.22-2.93-.29-5.86-.41-8.79,0-.24.1-.47.28-.64.22-.11.46-.14.7-.09.24.03.48.1.7.21.56.23,1.12.49,1.68.73,15.68,6.85,31.81,12.63,48.27,17.3,7.05,2.01,14.18,3.73,21.37,5.17,4.89.98,9.84,1.87,14.83,2.44.61.07,1.2.25,1.74.54.32.17.65.33.98.49,3.97,2.17,7.99,4.24,12.05,6.22.44.21.83.49,1.25.75.22.12.36.34.39.59.03.12.06.24.07.36.06,3.05.14,6.1-.04,9.15-.02.24-.13.47-.31.64-.22.11-.45.16-.69.16-.12.02-.24.02-.37,0-.24-.02-.49-.05-.73-.09-6.46-1.34-12.93-2.61-19.38-4.02-8.71-1.9-17.4-3.94-26.05-6.11-5.93-1.46-11.81-3.13-17.67-4.83-.57-.21-1.18-.31-1.79-.29-.36.06-.64.36-.66.73.08.85.13,1.7.27,2.54.32,1.92.72,3.84,1.03,5.76.39,2.41.78,4.82,1.1,7.24.44,3.39.71,6.79,1.14,10.19.05.36.1.73.12,1.09.3,5.48.93,10.95.98,16.45,0,2.68.09,5.37.12,7.39,0,5.43-.08,10.19-.27,14.94m25.92-82.61c.06-.09.14-.16.24-.19.12-.04.24-.04.36,0,.99.48,1.9,1.09,2.71,1.83.22.2.21.43.04.57-.1.07-.21.11-.33.13-.18.01-.37.01-.55,0-.53-.15-1.22-.37-1.93-.54-.62-.26-.92-.98-.65-1.6.03-.07.07-.14.11-.21m191.65,172.29c9.52-.79,18.61-4.27,26.21-10.03.58,6.94-.21,13.94-2.32,20.58-2.21,6.87-6.13,13.07-11.4,18-7.48,6.61-16.6,11.11-26.41,13.03l-1.55.35.65,1.46c2.31,6.23,3.19,12.9,2.59,19.52-.58,6.98-2.5,13.79-5.66,20.05-4.09,7.95-9.55,15.11-16.14,21.17v-138.73c.07-.02.14-.03.21-.03.49-.03.98-.06,1.47-.07,5.06-.09,10.12-.16,15.18-.27v35.2l1.15.13c5.33.46,10.69.36,16-.31m148.61-63.73c-.08.21-.25.49-.44.55-.93.31-1.87.57-2.83.78-5.27,1.06-10.53,2.22-15.82,3.19-4.57.84-9.12,1.76-13.69,2.59-3.49.63-6.99,1.2-10.48,1.79-3.74.63-7.47,1.26-11.21,1.87-2.05.34-4.11.64-6.16.95-2.78.42-5.56.82-8.34,1.24-1.96.29-3.88.49-5.81.81-2.53.41-5.09.66-7.64.98-2.79.36-5.57.74-8.37,1.1-.85.11-1.7.2-2.55.29l-3.28.38-3.28.37-3.28.37c-1.1.12-2.19.24-3.28.35-.98.1-1.96.13-2.93.28-1.7.25-3.42.33-5.11.52-4.01.49-8.05.64-12.06,1.1-.24.03-.49.06-.73.08-4.64.33-9.27.65-13.91.98-2.2.15-4.39.29-6.59.42-1.59.09-3.17.18-4.76.25-4.28.18-8.56.39-12.84.49-5.01.13-10.03.18-15.05.25h-2.2c-3.55-.02-7.1-.04-10.65-.08s-7.1-.13-10.64-.34c-2.44-.15-4.89-.2-7.33-.28-2.81-.1-5.62-.17-8.43-.49-.12,0-.24-.02-.37-.03-4.89-.18-9.78-.64-14.65-.98-1.47-.1-2.93-.25-4.4-.39-.37-.03-.73-.11-1.1-.12-3.67-.17-7.3-.74-10.96-.98-.86-.06-1.7-.18-2.55-.27l-3.64-.41-3.64-.43c-.61-.07-1.21-.16-1.82-.21-3.53-.34-7.04-.82-10.56-1.32-2.54-.36-5.1-.65-7.64-.98-2.3-.33-4.6-.65-6.9-.98-2.66-.4-5.32-.82-7.98-1.23-1.96-.3-3.87-.59-5.8-.91-4.1-.69-8.21-1.35-12.29-2.11-5.77-1.07-11.54-2.13-17.3-3.28-6.23-1.25-12.46-2.53-18.66-3.9-3.46-.78-6.91-1.59-10.36-2.39-.35-.11-.69-.24-1.02-.4-.32-.18-.54-.5-.58-.86.13-1.09.2-2.19.42-3.27.31-1.56.44-3.14.72-4.71.55-3.13.64-6.32,1.12-9.45,0-.12,0-.24.03-.37.77-9.62.99-19.27.67-28.91-.16-4.03-.32-8.06-.66-12.07-.32-3.77-.61-7.54-1.05-11.3-.37-3.15-.85-6.29-1.17-9.45,0-.24,0-.49-.05-.73-.07-.42.21-.81.62-.89.08-.01.17-.02.26,0,2.02.49,4.03,1,6.04,1.54,7.92,2.09,15.89,3.96,23.88,5.77,6.32,1.43,12.65,2.79,19.01,4.06,5.75,1.15,11.51,2.3,17.3,3.27,3.5.59,6.97,1.3,10.47,1.85,3.86.61,7.71,1.32,11.59,1.81,2.44.31,4.83.77,7.25,1.11,2.54.36,5.09.67,7.64,1.01l8.73,1.12c.85.11,1.7.2,2.55.29l3.64.41,2.55.28c1.7.18,3.41.36,5.11.53.85.09,1.71.15,2.56.23l5.11.49c.24,0,.49.06.73.08,4.77.22,9.51.81,14.28.98,2.2.08,4.4.26,6.6.38,1.71.09,3.42.19,5.13.23,11.38.33,22.75.33,34.13,0,2.32-.06,4.64-.22,6.96-.35,1.34-.07,2.68-.16,4.03-.22,3.06-.13,6.11-.23,9.15-.59,1.09-.13,2.2-.14,3.3-.22,1.71-.13,3.42-.28,5.12-.43.37-.03.73-.1,1.1-.12,3.67-.16,7.3-.72,10.96-.98,1.22-.09,2.44-.32,3.64-.43,2.56-.23,5.11-.57,7.66-.85,3.52-.4,7.04-.85,10.55-1.35,2.54-.36,5.1-.65,7.64-1.01,2.44-.34,4.84-.73,7.25-1.1,1.96-.3,3.86-.62,5.79-.91,5.68-.85,11.35-1.8,17-2.86,4.57-.85,9.15-1.62,13.69-2.5,5.38-1.05,10.79-2.13,16.17-3.28,5.74-1.23,11.47-2.47,17.19-3.79,5.96-1.37,11.9-2.79,17.82-4.31.35-.09.72-.1,1.08-.04.23.08.41.26.49.49.06.24.06.49,0,.72-.73,3.71-1.29,7.46-1.69,11.23-.44,4-.94,8-1.01,12.04-.02,1.46-.11,2.93-.19,4.39-.36,6.34-.37,12.69-.02,19.03.11,2.07.18,4.15.26,6.22.09,2.44.2,4.88.49,7.32.14,1.09.16,2.19.26,3.28.13,1.46.28,2.93.44,4.39.02.24.08.49.1.73.33,4.02.9,8,1.5,11.99.03.24,0,.49-.08.72m-295.7-76.38c-.13-2.32-.13-4.64,0-6.95.01-.24.12-.47.29-.63.22-.11.46-.14.7-.09.24.05.47.13.69.23.79.33,1.58.65,2.37.98,12.72,5.37,25.83,9.76,39.21,13.15.95.24,1.83.67,2.79.88.31.07.46.22.37.34s-.22.09-.34.1c-.12.02-.25.02-.37,0l-4-.49c-1.21-.16-2.44-.28-3.63-.49-2.05-.33-4.14-.38-6.17-.86-4.01-.43-7.98-1.15-11.97-1.74-3.62-.53-7.23-1.21-10.84-1.82-2.17-.37-4.34-.73-6.5-1.1-.33-.05-.66-.13-.98-.22-1.18-.33-1.61-.89-1.63-1.31m229.92-.93c0,.98-.49,1.46-1.56,1.68-1.44.26-2.88.53-4.32.78-4.09.69-8.18,1.38-12.28,2.05-2.29.37-4.59.68-6.88,1.02-2.42.36-4.83.75-7.24,1.09-2.54.36-5.08.71-7.62,1.04-2.66.34-5.33.65-8,.98-.61.08-1.2.23-1.81.29-.73.07-1.47.08-2.19.1-.12-.02-.23-.07-.34-.13.04-.09.06-.24.13-.27,1.72-.61,3.48-1.11,5.26-1.51,14.77-3.85,29.19-8.92,43.1-15.17.86-.46,1.77-.83,2.7-1.1.47-.08.93.23,1.01.7,0,.02,0,.03,0,.05,0,.37.05.73.05,1.09v3.29h-.02v4.02m110.08,19.4c.08,2.68.16,5.37.49,8.04.09.73.13,1.46.17,2.19.09,1.95.29,3.9.61,5.83.11.72.16,1.45.14,2.19-.02.37-.23.7-.54.89-.73.45-1.5.83-2.3,1.13-5.38,2.34-10.83,4.5-16.35,6.5-6.55,2.37-13.16,4.57-19.87,6.45-.35.1-.71.17-1.07.25-.37.03-.7-.19-.82-.54-.35-2.42-.55-4.85-.61-7.29-.09-3.05-.16-6.1-.17-9.16,0-3.42,0-6.83.05-10.25.03-2.81.14-5.61.44-8.41.13-1.21.18-2.44.25-3.66.09-1.46.21-2.93.44-4.39.34-2.17.35-4.39.87-6.53.45-3.76,1.29-7.45,2.01-11.17.33-1.67.67-3.35,1-5.03.03-.24.04-.48.03-.73-.02-.46-.4-.81-.86-.79-.04,0-.08,0-.12.01-.49.1-.98.19-1.43.31-5.66,1.53-11.32,3.08-17.03,4.43-5.71,1.35-11.42,2.7-17.14,3.98-5.38,1.2-10.76,2.33-16.14,3.46-3.83.8-7.67,1.53-11.51,2.27-.83.2-1.69.28-2.55.25-.34-.09-.63-.33-.79-.64-.05-.24-.09-.48-.11-.72,0-3.42,0-6.84,0-10.25,0-.24.04-.49.12-.72.07-.23.19-.45.36-.62.28-.24.59-.44.91-.61,3.33-1.8,6.67-3.59,10.01-5.37.76-.42,1.59-.68,2.44-.77,4.63-.49,9.2-1.25,13.77-2.08,12.38-2.31,24.6-5.42,36.57-9.31,12.7-4.02,25.18-8.73,37.37-14.1.67-.3,1.36-.53,2.05-.79.25-.1.72.3.74.6.07,1.83,0,3.66-.22,5.48-.25,2.67-.37,5.37-.49,8.04-.1,2.44-.26,4.88-.37,7.32-.13,3.17-.24,6.34-.34,9.52-.05,1.71-.07,3.42-.1,5.12-.29,9.89-.2,19.78.09,29.66m-73.23-49.78c.05-.11.12-.2.21-.28,1.5-1.19,3.08-2.27,4.74-3.23.24-.14.77.17.8.49s.07.71.1.98c0,.27-.02.55-.08.82-.15.47-.53.82-1.01.93-1.28.3-2.57.58-3.86.85-.23.04-.47.04-.7,0-.1,0-.25-.08-.27-.16-.02-.12,0-.24.07-.34m113.59-53.99c.23-.02.45.09.58.28.11.35.15.71.13,1.08-.07,2.07-.15,4.15-.25,6.22-.34,6.83-.31,13.67-.06,20.5.1,2.68.22,5.37.32,8.05.11,2.93.21,5.86.52,8.79.12,1.09.15,2.19.21,3.29.12,2.32.32,4.63.49,6.94.64,7.06.71,14.16.21,21.23-.22,2.55-.63,5.09-.98,7.63-.05.36-.17.71-.24,1.07-.1.61-.48,1.14-1.03,1.43-.75.41-1.51.8-2.28,1.18-5.49,2.7-10.96,5.41-16.46,8.07-3.85,1.86-7.74,3.66-11.61,5.47-.65.35-1.33.61-2.04.8-.37.01-.7-.21-.83-.56-.06-.23-.11-.47-.15-.71-.05-.98-.09-1.95-.11-2.93-.13-8.06-.11-16.12.07-24.18,0-.85.05-1.71.08-2.56h.05c.14-4.15.27-8.3.44-12.45.1-2.44.26-4.88.4-7.32,0-.24.04-.49.05-.73.23-4.88.49-9.76.91-14.64.2-2.31.28-4.63.56-6.94.15-.72.15-1.46,0-2.18-.08-.28-.22-.42-.53-.36-.36.05-.71.14-1.05.27-1.34.6-2.66,1.22-3.99,1.86-11.26,5.35-22.82,10.08-34.61,14.15-8.3,2.93-16.71,5.53-25.21,7.81-1.06.28-2.14.53-3.2.8-.36.06-.72-.14-.84-.49-.06-.23-.1-.47-.13-.71v-4.39c0-.87.43-1.68,1.15-2.15,1.55-1.2,3.08-2.44,4.61-3.63.49-.38.94-.79,1.47-1.11.42-.25.86-.46,1.32-.62.35-.12.71-.2,1.07-.25,17.88-2.96,35.27-8.31,51.72-15.91,12.71-5.75,24.89-12.58,36.43-20.41.84-.7,1.79-1.28,2.81-1.7m-6.05-39.6c.33,3.52.3,7.07.33,11.48-.03,1.46-.07,3.77-.14,6.09-.03,1.83-.17,3.66-.42,5.48-.11.72-.17,1.46-.22,2.19-.33,3.4-.84,6.78-1.54,10.13-.14.73-.59,1.36-1.22,1.74-3.46,2.31-6.99,4.49-10.57,6.6-14,8.28-28.86,15.02-44.31,20.1-5.23,1.71-10.51,3.24-15.87,4.47-.25.06-.53,0-.63-.2-.07-.24,0-.51.2-.67.34-.35.69-.69,1.04-1.02.98-.92,1.96-1.84,2.93-2.77,26.67-25.32,48.03-55.68,62.83-89.32.44-1,.91-1.99,1.39-2.98.1-.23.37-.34.6-.24,0,0,0,0,.01,0,.23.08.41.26.49.49.04.12.08.23.11.35,1.26,4.47,2.25,8.99,3.1,13.55.89,4.81,1.41,9.66,1.87,14.52m6.81-128.26c-.05,2.56-.14,5.12-.4,7.68-.11,1.09-.16,2.19-.22,3.29-.08,2.2-.27,4.39-.57,6.57-.08.49-.11.98-.15,1.46-.28,3.66-.83,7.27-1.34,10.9-.44,3.14-.98,6.27-1.53,9.4-1.62,9.13-3.74,18.17-6.36,27.07-24.38,83.1-87.33,149.41-169.15,178.19-10.27,3.61-20.75,6.57-31.38,8.88-6.78,1.46-9.78,1.95-15.5,2.93-4.59.78-9.21,1.26-13.81,1.86-1.33.18-2.69.16-4.02.33-5.47.69-10.98.76-16.48,1.02-6.11.29-12.24.26-18.35-.11-1.59-.09-3.18-.17-4.77-.23-2.81-.12-5.62-.21-8.42-.6-.85-.12-1.71-.13-2.56-.21-1.34-.13-2.67-.27-4.01-.42-.61-.07-1.21-.17-1.82-.22-3.29-.3-6.55-.84-9.81-1.33-3.03-.45-6.03-1.01-9.04-1.56-6.02-1.1-11.98-2.46-17.89-4.02-95.11-25.06-168.95-99.92-192.57-195.23-1.58-6.4-2.93-12.85-4.04-19.35-.72-4.21-1.41-8.43-1.79-12.69-.6-3.37-.64-6.81-1.1-10.2-.05-.36-.08-.73-.1-1.09-.62-9.63-1.05-19.27-.71-28.92.05-1.59.17-3.17.25-4.75.1-1.95.18-3.9.31-5.86.11-1.7.27-3.42.41-5.11.03-.37.1-.73.12-1.09.15-3.3.67-6.56,1.03-9.83.27-2.44.68-4.83,1.06-7.25.48-3.14,1.03-6.26,1.63-9.38,1.29-6.68,2.29-11.23,3.96-17.49,24.99-94.59,99.52-168.13,194.56-192,6.29-1.57,12.63-2.92,19.01-4.05,3.97-.7,7.95-1.39,11.98-1.77,3.13-.59,6.33-.63,9.47-1.12.12-.02.24-.03.37-.04,4.76-.24,9.51-.8,14.28-.9,7.22-.17,14.44-.18,21.65,0,2.2.06,4.4.14,6.59.39.49.05.98.11,1.47.12,3.91.12,7.82.64,11.7,1.02,2.67.26,5.33.68,8,1.07,1.96.28,3.87.57,5.8.88,6.03,1.01,12.01,2.24,17.97,3.64,12.38,2.92,24.53,6.73,36.35,11.42,59.51,23.58,108.68,67.5,138.75,123.92,9.8,18.33,17.39,37.74,22.61,57.85,1.72,6.62,3.22,13.28,4.4,20.01,1.04,5.86,1.41,8.59,2.18,14.11.45,3.27.64,6.56,1.1,9.83.14.98.15,1.95.21,2.93.14,1.95.28,3.9.4,5.86.11,1.83.22,3.66.26,5.49.08,3.29.11,6.59.15,9.61-.04,3.22-.07,6.14-.12,9.08m44.01-28.72l.13-1.14c.45-5.24.35-10.52-.31-15.74-.78-9.36-4.21-18.3-9.9-25.78,6.86-.57,13.76.2,20.32,2.28,6.78,2.17,12.9,6.04,17.77,11.23,6.53,7.36,10.97,16.33,12.87,25.98l.35,1.52,1.43-.63c6.16-2.27,12.75-3.14,19.3-2.54,6.89.57,13.61,2.46,19.79,5.57,7.85,4.02,14.92,9.38,20.9,15.85h-137.74c0-.24-.04-.49-.05-.72v-15.87h35.15Z" style="fill:#f3bb28;"/></g></g></g></g></svg>