<?xml version="1.0" encoding="UTF-8"?><svg id="Layer_2" xmlns="http://www.w3.org/2000/svg" xmlns:xlink="http://www.w3.org/1999/xlink" viewBox="0 0 841.11 928.32"><defs><clipPath id="clippath"><rect width="839.7" height="928.32" style="fill:none;"/></clipPath><clipPath id="clippath-1"><rect x="1.41" width="839.7" height="928.32" style="fill:none;"/></clipPath></defs><g id="Layer_1-2"><g id="Group_763"><g style="clip-path:url(#clippath);"><g id="Group_762"><path id="Path_1190" d="m1.94,414.15c33.6-37.56,66.93-22.53,66.93-22.53,11.56-50.84,57.78-42.44,57.78-42.44-15.28,16.18-12.13,44.78-12.13,44.78h35.54v20.22l-148.13-.03Z" style="fill:#1a1818;"/><path id="Path_1191" d="m1.94,414.15c33.6-37.56,66.93-22.53,66.93-22.53,11.56-50.84,57.78-42.44,57.78-42.44-15.28,16.18-12.13,44.78-12.13,44.78h35.54v20.22l-148.13-.03Z" style="fill:none; stroke:#1a1818; stroke-miterlimit:10; stroke-width:.28px;"/><path id="Path_1192" d="m1.94,414.51c33.6,37.56,66.93,22.54,66.93,22.54,11.55,50.84,57.78,42.46,57.78,42.46-15.28-16.17-12.13-44.78-12.13-44.78h37.27v-20.22H1.94Z" style="fill:#fff;"/><path id="Path_1193" d="m1.94,414.51c33.6,37.56,66.93,22.54,66.93,22.54,11.55,50.84,57.78,42.46,57.78,42.46-15.28-16.17-12.13-44.78-12.13-44.78h37.27v-20.22H1.94Z" style="fill:none; stroke:#1a1818; stroke-miterlimit:10; stroke-width:.28px;"/><path id="Path_1194" d="m418.91,1.93c37.56,33.61,22.53,66.93,22.53,66.93,50.85,11.56,42.47,57.82,42.47,57.82-16.18-15.28-44.78-12.13-44.78-12.13v35.54h-20.22V1.93Z" style="fill:#1a1818;"/><path id="Path_1195" d="m418.91,1.93c37.56,33.61,22.53,66.93,22.53,66.93,50.85,11.56,42.47,57.82,42.47,57.82-16.18-15.28-44.78-12.13-44.78-12.13v35.54h-20.22V1.93Z" style="fill:none; stroke:#1a1818; stroke-miterlimit:10; stroke-width:.28px;"/><path id="Path_1196" d="m418.58,1.93c-37.56,33.61-22.53,66.93-22.53,66.93-50.85,11.56-42.47,57.82-42.47,57.82,16.17-15.28,44.78-12.13,44.78-12.13v37.27h20.22V1.93Z" style="fill:#fff;"/><path id="Path_1197" d="m418.58,1.93c-37.56,33.61-22.53,66.93-22.53,66.93-50.85,11.56-42.47,57.82-42.47,57.82,16.17-15.28,44.78-12.13,44.78-12.13v37.27h20.22V1.93Z" style="fill:none; stroke:#1a1818; stroke-miterlimit:10; stroke-width:.28px;"/><path id="Path_1198" d="m837.77,414.67c-33.61,37.56-66.93,22.53-66.93,22.53-11.56,50.85-57.82,42.47-57.82,42.47,15.28-16.18,12.13-44.78,12.13-44.78h-35.54v-20.22h148.15Z" style="fill:#1a1818;"/><path id="Path_1199" d="m837.77,414.67c-33.61,37.56-66.93,22.53-66.93,22.53-11.56,50.85-57.82,42.47-57.82,42.47,15.28-16.18,12.13-44.78,12.13-44.78h-35.54v-20.22h148.15Z" style="fill:none; stroke:#1a1818; stroke-miterlimit:10; stroke-width:.28px;"/><path id="Path_1200" d="m837.77,414.33c-33.61-37.56-66.93-22.54-66.93-22.54-11.56-50.84-57.82-42.46-57.82-42.46,15.28,16.17,12.13,44.78,12.13,44.78h-37.24v20.22h149.85Z" style="fill:#fff;"/><path id="Path_1201" d="m837.77,414.33c-33.61-37.56-66.93-22.54-66.93-22.54-11.56-50.84-57.82-42.46-57.82-42.46,15.28,16.17,12.13,44.78,12.13,44.78h-37.24v20.22h149.85Z" style="fill:none; stroke:#1a1818; stroke-miterlimit:10; stroke-width:.28px;"/><path id="Path_1202" d="m418.58,926.38c-37.56-33.61-22.53-66.93-22.53-66.93-50.85-11.56-42.47-57.82-42.47-57.82,16.17,15.28,44.78,12.13,44.78,12.13v-35.51h20.22v148.13Z" style="fill:#1a1818;"/><path id="Path_1203" d="m418.58,926.38c-37.56-33.61-22.53-66.93-22.53-66.93-50.85-11.56-42.47-57.82-42.47-57.82,16.17,15.28,44.78,12.13,44.78,12.13v-35.51h20.22v148.13Z" style="fill:none; stroke:#1a1818; stroke-miterlimit:10; stroke-width:.28px;"/><path id="Path_1204" d="m418.91,926.38c37.56-33.61,22.53-66.93,22.53-66.93,50.85-11.56,42.47-57.82,42.47-57.82-16.17,15.28-44.78,12.13-44.78,12.13v-37.27h-20.22v149.89Z" style="fill:#fff;"/><path id="Path_1205" d="m418.91,926.38c37.56-33.61,22.53-66.93,22.53-66.93,50.85-11.56,42.47-57.82,42.47-57.82-16.17,15.28-44.78,12.13-44.78,12.13v-37.27h-20.22v149.89Z" style="fill:none; stroke:#1a1818; stroke-miterlimit:10; stroke-width:.28px;"/><path id="Path_1206" d="m566.37,572.97l106.47-62.93,1.54,3.66c9.11,24.5,11.22,51.05,6.09,76.67-8.85,42.8-81.64,46.74-84.74,46.88l-2.43.12-26.95-64.4Z" style="fill:#ded9da;"/><path id="Path_1207" d="m671.19,515.05c8.78,23.86,10.82,49.68,5.89,74.62-8.41,40.66-81.51,44.13-81.51,44.13l-24.84-59.38,100.45-59.37Zm3.32-10.01l-6.84,4.04-100.47,59.4-5.2,3.07,2.33,5.58,24.84,59.38,1.87,4.48,4.85-.23c3.2-.15,78.58-4.25,87.97-49.64,5.25-26.31,3.07-53.57-6.3-78.72l-3.06-7.35Z" style="fill:#194735;"/><path id="Path_1208" d="m243.89,644.2c-3.09-.15-75.88-4.09-84.74-46.88-5.13-25.63-3.02-52.18,6.09-76.67l1.54-3.66,106.48,62.93-26.95,64.4-2.43-.12Z" style="fill:#ded9da;"/><path id="Path_1209" d="m168.43,521.98l100.46,59.37-24.85,59.38s-73.1-3.47-81.5-44.13c-4.92-24.94-2.89-50.76,5.89-74.62m-3.32-10.01l-3.08,7.31c-9.37,25.14-11.55,52.4-6.3,78.72,9.39,45.4,84.76,49.5,87.97,49.64l4.85.23,1.87-4.48,24.84-59.38,2.33-5.58-5.2-3.07-100.42-59.36-6.86-4.04Z" style="fill:#194735;"/><path id="Path_1210" d="m217.57,708.34c-10.92,0-58.96-24.46-64.41-27.25l-1.55-.8-.29-1.72c-1.96-11.15-2.29-22.54-.96-33.79.28-3.91.61-8.33.91-13.78.79-13.12.79-26.27,0-39.39l-.58-7.36,6.03,4.25c52.73,37.11,98.64,39.21,99.1,39.21l3.32.12v17.98l-.32.66c-.07.15-7.08,15.23-15.28,30.12-15.38,27.91-21.78,31.7-26.01,31.7" style="fill:#ded9da;"/><path id="Path_1211" d="m154.75,591.32c54.18,38.14,100.96,39.87,100.96,39.87v13.88s-27.74,59.81-38.14,59.81-62.83-26.87-62.83-26.87c-3.02-18.2-1.33-23.41,0-46.81.81-13.28.81-26.59,0-39.87m-8.09-14.17l1.17,14.72c.78,12.96.78,25.96,0,38.93-.3,5.42-.62,9.83-.91,13.72-1.34,11.52-1,23.18,1,34.61l.57,3.45,3.1,1.59c12.63,6.49,54.79,27.64,65.99,27.64,6.55,0,13.68-5.6,29.05-33.49,8.25-14.99,15.1-29.71,15.38-30.33l.66-1.39v-22.08l-6.65-.25c-.44,0-45.58-2.25-97.24-38.61l-12.13-8.51Z" style="fill:#194735;"/><path id="Path_1212" d="m623.39,708.34c-4.23,0-10.63-3.77-26.01-31.7-8.19-14.89-15.2-29.96-15.28-30.12l-.32-.66v-17.94l3.32-.13c.46,0,46.52-2.21,99.1-39.21l6.03-4.25-.58,7.36c-.79,13.12-.79,26.27,0,39.39.31,5.45.63,9.88.91,13.78,1.33,11.25,1.01,22.63-.96,33.79l-.29,1.72-1.55.8c-5.44,2.78-53.49,27.25-64.41,27.25" style="fill:#ded9da;"/><path id="Path_1213" d="m686.23,591.32c-.81,13.28-.81,26.59,0,39.87,1.33,23.41,3.02,28.58,0,46.81,0,0-52.43,26.87-62.83,26.87s-38.14-59.81-38.14-59.81v-13.88s46.78-1.73,100.96-39.87m8.09-14.17l-12.07,8.5c-51.91,36.55-96.78,38.6-97.24,38.61l-6.65.25v22.08l.66,1.39c.29.62,7.13,15.34,15.38,30.33,15.36,27.91,22.49,33.49,29.04,33.49,11.21,0,53.35-21.15,66-27.64l3.1-1.59.57-3.45c2-11.43,2.33-23.09,1-34.61-.29-3.89-.61-8.31-.91-13.72-.79-12.96-.79-25.96,0-38.93l1.11-14.71Z" style="fill:#194735;"/><path id="Path_1214" d="m555.55,740.55c-4.4.01-8.8-.24-13.17-.75l-3.06-.36v-85.46l3.32-.11c47.18-1.56,102.17-27.28,102.72-27.55l5.4-2.55-.46,5.98c-.04.56-4.25,56.27,0,84.15l.39,2.55-2.34,1.1c-1.99.94-49.32,23.01-92.81,23.01" style="fill:#ded9da;"/><path id="Path_1215" d="m646.88,629.46s-4.34,56.34,0,84.94c0,0-48.13,22.68-91.33,22.68-4.26.01-8.52-.23-12.76-.72v-79.02c48.46-1.6,104.09-27.88,104.09-27.88m7.83-11.36l-10.79,5.09c-.54.26-54.94,25.68-101.36,27.21l-6.71.22v91.89l6.11.74c4.51.52,9.04.78,13.58.77,44.25,0,92.27-22.39,94.29-23.35l4.65-2.2-.78-5.11c-4.17-27.5,0-82.82.06-83.37l.94-11.88Z" style="fill:#194735;"/><path id="Path_1216" d="m287.42,742.28c-43.47,0-90.82-22.08-92.81-23.01l-2.34-1.1.39-2.55c4.22-27.91,0-83.59,0-84.15l-.46-5.95,5.4,2.55c.55.26,55.57,25.99,102.72,27.55l3.32.11v85.46l-3.05.36c-4.37.51-8.77.76-13.17.75h0Z" style="fill:#ded9da;"/><path id="Path_1217" d="m196.09,631.16s55.64,26.28,104.09,27.88v79.03c-4.24.49-8.5.73-12.76.72-43.2,0-91.33-22.68-91.33-22.68,4.33-28.58,0-84.94,0-84.94m-7.83-11.36l.91,11.9c.04.56,4.23,55.89.06,83.37l-.78,5.11,4.65,2.2c2.03.96,50.04,23.35,94.29,23.35,4.54.01,9.07-.25,13.58-.77l6.11-.73v-91.87l-6.71-.22c-46.48-1.53-100.81-26.95-101.36-27.21l-10.77-5.12Z" style="fill:#194735;"/><path id="Path_1218" d="m418.8,688.03c-150.11,0-271.8-121.69-271.8-271.8s121.69-271.8,271.8-271.8,271.8,121.69,271.8,271.8h0c-.16,150.04-121.75,271.64-271.8,271.8" style="fill:#f7ab11;"/><path id="Path_1219" d="m418.77,148.79c147.71-.02,267.47,119.7,267.49,267.41.02,147.71-119.7,267.47-267.41,267.49-147.71.02-267.47-119.7-267.49-267.41v-.04c0-147.69,119.72-267.43,267.41-267.45m0-8.64c-152.5,0-276.12,123.62-276.11,276.12,0,152.5,123.62,276.12,276.12,276.11,152.5,0,276.12-123.62,276.11-276.12,0-73.23-29.09-143.46-80.87-195.24-51.66-51.96-121.97-81.1-195.25-80.9" style="fill:#164333;"/><path id="Path_1220" d="m669.11,416.24c0,138.26-112.08,250.33-250.33,250.33s-250.33-112.08-250.33-250.33c0-138.26,112.08-250.33,250.33-250.33h0c138.25,0,250.33,112.08,250.33,250.33m-250.33-175.71c-97.04,0-175.71,78.68-175.7,175.72,0,97.04,78.68,175.71,175.72,175.7,97.04,0,175.7-78.67,175.7-175.71s-78.67-175.71-175.71-175.71h0" style="fill:#164333;"/><path id="Path_1221" d="m418.77,254.6c89.28,0,161.66,72.38,161.66,161.66s-72.38,161.66-161.66,161.66-161.66-72.38-161.66-161.66h0c0-89.29,72.38-161.66,161.66-161.66m0-5.2c-92.15,0-166.86,74.71-166.86,166.86s74.71,166.86,166.86,166.86,166.86-74.71,166.86-166.86h0c-.11-92.12-74.75-166.77-166.86-166.87" style="fill:#164333;"/><path id="Path_1222" d="m329.57,524.9c-9.54,5.52-29.24,3.16-29.24,3.16-.14-11.13.55-22.26,2.05-33.29l27.19,30.14Z" style="fill:#194735;"/><g id="S" style="isolation:isolate;"><text transform="translate(285.77 286.98) rotate(-37.89)" style="fill:#f7ab11; font-family:Arial-BoldMT, Arial; font-size:73.08px; font-weight:700; isolation:isolate;"><tspan x="0" y="0">S</tspan></text></g><g id="A" style="isolation:isolate;"><text transform="translate(322.89 257.09) rotate(-22.46)" style="fill:#f7ab11; font-family:Arial-BoldMT, Arial; font-size:73.09px; font-weight:700; isolation:isolate; letter-spacing:-.04em;"><tspan x="0" y="0">A</tspan></text></g><g id="N" style="isolation:isolate;"><text transform="translate(370.45 236.8) rotate(-6.31)" style="fill:#f7ab11; font-family:Arial-BoldMT, Arial; font-size:73.1px; font-weight:700; isolation:isolate;"><tspan x="0" y="0">N</tspan></text></g><g id="C" style="isolation:isolate;"><text transform="translate(428.09 230.7) rotate(11.48)" style="fill:#f7ab11; font-family:Arial-BoldMT, Arial; font-size:73.1px; font-weight:700; isolation:isolate;"><tspan x="0" y="0">C</tspan></text></g><g id="L" style="isolation:isolate;"><text transform="translate(475.88 239.99) rotate(25.34)" style="fill:#f7ab11; font-family:Arial-BoldMT, Arial; font-size:73.11px; font-weight:700; isolation:isolate; letter-spacing:-.02em;"><tspan x="0" y="0">L</tspan></text></g><g id="E" style="isolation:isolate;"><text transform="translate(512.7 256.32) rotate(38.46)" style="fill:#f7ab11; font-family:Arial-BoldMT, Arial; font-size:73.1px; font-weight:700; isolation:isolate;"><tspan x="0" y="0">E</tspan></text></g><g id="M" style="isolation:isolate;"><text transform="translate(548.63 282.37) rotate(54.04)" style="fill:#f7ab11; font-family:Arial-BoldMT, Arial; font-size:73.06px; font-weight:700; isolation:isolate;"><tspan x="0" y="0">M</tspan></text></g><g id="E-2" style="isolation:isolate;"><text transform="translate(582.24 328.43) rotate(69.75)" style="fill:#f7ab11; font-family:Arial-BoldMT, Arial; font-size:73.08px; font-weight:700; isolation:isolate;"><tspan x="0" y="0">E</tspan></text></g><g id="N-2" style="isolation:isolate;"><text transform="translate(598.7 369.67) rotate(84.2)" style="fill:#f7ab11; font-family:Arial-BoldMT, Arial; font-size:73.11px; font-weight:700; isolation:isolate;"><tspan x="0" y="0">N</tspan></text></g><g id="T" style="isolation:isolate;"><text transform="translate(603.91 418.09) rotate(97.81)" style="fill:#f7ab11; font-family:Arial-BoldMT, Arial; font-size:73.12px; font-weight:700; isolation:isolate;"><tspan x="0" y="0">T</tspan></text></g><g id="E-3" style="isolation:isolate;"><text transform="translate(599.5 458.13) rotate(111.1)" style="fill:#f7ab11; font-family:Arial-BoldMT, Arial; font-size:73.1px; font-weight:700; isolation:isolate;"><tspan x="0" y="0">E</tspan></text></g></g></g></g><g id="M-2" style="isolation:isolate;"><text transform="translate(226.58 549.61) rotate(48.31)" style="fill:#f7ab11; font-family:Arial-BoldMT, Arial; font-size:73.1px; font-weight:700; isolation:isolate;"><tspan x="0" y="0">M</tspan></text></g><g id="A-2" style="isolation:isolate;"><text transform="translate(269.99 598.28) rotate(33.28)" style="fill:#f7ab11; font-family:Arial-BoldMT, Arial; font-size:73.1px; font-weight:700; isolation:isolate; letter-spacing:-.04em;"><tspan x="0" y="0">A</tspan></text></g><g id="Y" style="isolation:isolate;"><text transform="translate(314.22 627.93) rotate(20.48)" style="fill:#f7ab11; font-family:Arial-BoldMT, Arial; font-size:73.12px; font-weight:700; isolation:isolate; letter-spacing:-.02em;"><tspan x="0" y="0">Y</tspan></text></g><g id="F" style="isolation:isolate;"><text transform="translate(373.38 648.68) rotate(5.34)" style="fill:#f7ab11; font-family:Arial-BoldMT, Arial; font-size:73.1px; font-weight:700; isolation:isolate;"><tspan x="0" y="0">F</tspan></text></g><g id="I" style="isolation:isolate;"><text transform="translate(422.58 652.26) rotate(-3.45)" style="fill:#f7ab11; font-family:Arial-BoldMT, Arial; font-size:73.1px; font-weight:700; isolation:isolate;"><tspan x="0" y="0">I</tspan></text></g><g id="E-4" style="isolation:isolate;"><text transform="translate(447.02 652.17) rotate(-13.58)" style="fill:#f7ab11; font-family:Arial-BoldMT, Arial; font-size:73.1px; font-weight:700; isolation:isolate;"><tspan x="0" y="0">E</tspan></text></g><g id="L-2" style="isolation:isolate;"><text transform="translate(502.1 638.45) rotate(-27.27)" style="fill:#f7ab11; font-family:Arial-BoldMT, Arial; font-size:73.1px; font-weight:700; isolation:isolate; letter-spacing:-.02em;"><tspan x="0" y="0">L</tspan></text></g><g id="D" style="isolation:isolate;"><text transform="translate(548.91 614.72) rotate(-41.5)" style="fill:#f7ab11; font-family:Arial-BoldMT, Arial; font-size:73.1px; font-weight:700; isolation:isolate;"><tspan x="0" y="0">D</tspan></text></g><g id="Group_765"><g style="clip-path:url(#clippath-1);"><g id="Group_764"><path id="Path_1223" d="m505.69,550.23c-14.08,0-28.16-.5-41.82-1.47h-.66c-48.54,0-82.71-35.09-90.27-43.59-5.32,5.56-23,21.98-45.91,21.98-7.04-.02-13.98-1.59-20.35-4.59l-.77-.35-.3-.79c-7.38-23.67.41-49.46,19.67-65.08-10.63-7-51.99-37.21-55.75-85.44-4.14-53.16-5.88-67.01-25.88-102.13l-4.7-8.25,7.72,5.52c3.5,2.51,85.86,61.56,100.86,77.71,14.62,15.72,40.07,46.64,46.03,54.05l6.44,3.01c4.04-12.97,4.94-26.72,2.62-40.11-4.23-23.66-1.09-51.75,9.42-53.97,1.24-.26,2.5-.39,3.76-.39,7.65,0,15.74,4.72,25.47,14.85,7.46,7.77,12.22,13.5,16.43,18.57,1.68,1.99,3.26,3.92,4.88,5.78,4.94,5.37,11.21,9.34,18.17,11.53l.43.18c14.93,6.29,32.21,14.95,33.47,26.27,1.46,13.16-2.82,20.36-31.15,25.68-3.99.74-7.77,1.33-11.42,1.93-21.16,3.39-34.14,5.46-34.14,25.55,15.51,3.36,30.33,9.36,43.81,17.76,6.05,4.42,13.76,10.52,21.21,16.43,9.8,8.29,20.13,15.91,30.93,22.83,2.39,1.2,6.37,3.69,11.88,7.14,17.13,10.73,45.8,28.68,70.49,35.17l8.32,2.19-8.41,1.85c-36.4,6.97-73.39,10.38-110.45,10.18" style="fill:#ded9da;"/><path id="Path_1224" d="m245.46,267.74s85.53,61.25,100.55,77.43c15.02,16.18,41.61,48.51,46.23,54.32l8.96,4.19c4.88-13.9,6.07-28.83,3.47-43.33-4.34-24.27-.43-49.84,7.8-51.58,1.09-.23,2.21-.34,3.32-.35,7.25,0,14.96,4.82,23.97,14.21,10.4,10.83,15.6,17.77,21.27,24.28,5.18,5.65,11.76,9.83,19.07,12.13,8.23,3.47,31.23,13,32.5,24.7,1.27,11.7-1.73,18.2-29.47,23.4-27.73,5.2-48.11,3.9-47.24,31.23,0,0,28.58,6.06,44.63,17.76,16.06,11.7,42.91,34.68,52.45,39.44s49.84,33.81,82.78,42.47c-36.25,6.97-73.1,10.36-110.01,10.13-13.2,0-27.17-.43-41.67-1.46h-.79c-54.59,0-90.22-44.64-90.22-44.64,0,0-19.62,23.04-45.96,23.04-6.74-.02-13.39-1.52-19.48-4.4-7.52-23.86,1.04-49.86,21.27-64.58,0,0-52.94-30.68-57.21-85.37-4.27-54.7-6.25-68.06-26.15-103m-13.01-14.43l9.39,16.49c19.01,33.38,21.27,45.91,25.62,101.27,2.53,24.86,13.57,48.07,31.26,65.72,7,7.37,14.74,14.01,23.09,19.8-12.19,10.77-19.72,25.85-21,42.07-.65,7.94.3,15.94,2.8,23.5l.6,1.58,1.54.71c6.64,3.13,13.89,4.76,21.23,4.78,17.37-1.01,33.72-8.51,45.81-21.01,9.97,10.92,43.04,42.62,90.38,42.62h.66c13.66.97,27.73,1.46,41.81,1.46,37.21.2,74.36-3.23,110.91-10.22l16.79-3.71-16.61-4.38c-24.39-6.42-52.89-24.27-69.91-34.93-5.57-3.48-9.59-5.98-12.06-7.24-10.67-6.86-20.88-14.41-30.57-22.59-7.47-5.91-15.19-12.03-21.27-16.47-13.2-8.31-27.71-14.3-42.93-17.72.56-16.09,10.27-18.32,32.36-21.86,3.67-.58,7.47-1.2,11.48-1.95,26.65-5,34.63-11.79,32.84-27.95-1.37-12.4-19.27-21.46-34.72-27.96l-.3-.12-.13-.05c-6.67-2.06-12.67-5.84-17.4-10.97-1.6-1.84-3.18-3.74-4.84-5.75-4.23-5.09-9.03-10.86-16.53-18.67-10.15-10.57-18.72-15.5-26.97-15.5-1.41,0-2.81.15-4.19.44-13.29,2.79-14.94,34.56-11.04,56.37,2.12,12.27,1.48,24.86-1.86,36.85l-3.83-1.79c-6.49-8.05-31.42-38.29-45.81-53.78-15.17-16.31-97.7-75.45-101.2-77.99l-15.38-11.04Z" style="fill:#194735;"/><path id="Path_1225" d="m337.47,508.99c.8,3.58-1.46,7.13-5.05,7.93-3.58.8-7.13-1.46-7.93-5.05s1.46-7.13,5.05-7.93c.47-.1.94-.16,1.42-.16,3.22-.31,6.1,2,6.51,5.2" style="fill:#194735;"/><path id="Path_1226" d="m280.77,469.88c-6.65-26.84-17.88-58.39-46.09-64.66-22.43-6.24-43.53-16.56-62.23-30.43l-.82-.62.16-1.02c1.44-9.39,4.89-22.25,5.03-22.79l.66-2.51,2.06,1.58c33.89,26.07,50.96,31.82,62.23,35.63,10.82,3.65,16.78,5.67,26.54,21.99l.05.08.04.09c22.8,50.34,34.9,128.83,35.02,129.62l-3.38.74-19.27-67.7Z" style="fill:#f7ab11;"/><path id="Path_1227" d="m178.49,350.82c66.54,51.17,68.97,24.76,88.34,57.15,22.96,50.71,34.89,129.17,34.89,129.17l-19.27-67.71c-5.42-21.88-16.17-58.94-47.38-65.88-22.21-6.16-43.08-16.38-61.57-30.14,1.45-9.4,4.99-22.59,4.99-22.59m-1.99-5.91l-1.33,5.01c-.15.54-3.62,13.5-5.07,22.97l-.31,2.03,1.63,1.25c18.85,14.09,40.19,24.52,62.89,30.74,27.29,6.06,38.26,37.02,44.77,63.32v.11l19.27,67.71,6.77-1.47c-.12-.79-12.26-79.52-35.16-130.07l-.08-.19-.11-.17c-10.08-16.87-16.25-18.95-27.47-22.73-11.21-3.78-28.05-9.48-61.74-35.37l-4.07-3.15Z" style="fill:#194735;"/><path id="Path_1228" d="m289.55,509.78l-9.36-22.59v-.17c-.04-.22-4.57-22.36-22.41-31.19-8.41-3.41-17.25-5.62-26.28-6.59-21.96-2.44-43.12-9.64-62-21.1l-.75-.49-.04-.9c0-.73-.78-17.94,0-27.38l.27-3.2,2.53,1.99c.37.29,37.45,29.16,70.39,33.13,24.35,2.93,43.61,32.39,57.27,87.57l2.66,10.68-12.29-19.76Z" style="fill:#f7ab11;"/><path id="Path_1229" d="m170.41,399.48s37.43,29.42,71.27,33.49c33.83,4.07,49.79,62.04,55.79,86.25l-6.36-10.25-9.24-22.34s-4.49-23.07-23.34-32.42c-18.85-9.34-52.22-4.48-88.12-27.59,0,0-.79-17.74,0-27.15m-2.94-6.69l-.54,6.41c-.8,9.52-.04,26.87,0,27.6l.08,1.79,1.51.97c19.08,11.6,40.47,18.89,62.67,21.35,8.85.95,17.53,3.12,25.78,6.44,17.11,8.48,21.43,29.75,21.47,29.96l.07.35.13.33,9.24,22.34.11.27.15.24,6.36,10.25,11.6,18.69-5.28-21.35c-13.84-55.95-33.61-85.85-58.75-88.88-32.45-3.9-69.17-32.48-69.53-32.77l-5.07-3.98Z" style="fill:#194735;"/><path id="Path_1230" d="m302.4,551.92c-.41-2.28-.86-4.58-1.33-6.84-4.26-19.22-17.6-63.88-49.1-63.88-1.16,0-2.33.06-3.48.19-9.56.97-19.16,1.46-28.77,1.46-14.8.48-29.6-1.05-43.99-4.56l-.88-.33-5.44-25.02,2.98,1.11c13.4,4.61,27.31,7.55,41.43,8.74,1.95.15,3.99.22,6.25.22,3.24,0,6.45-.15,9.58-.3,3.01-.14,6.12-.28,9.13-.28,15.43-.82,30.11,6.73,38.43,19.75,13.65,18.41,22.97,39.67,27.25,62.19.94,4.27,1.33,6.9,1.37,7l-3.4.55Z" style="fill:#f7ab11;"/><path id="Path_1231" d="m171.77,455.64c13.54,4.69,27.62,7.66,41.91,8.85,2.15.17,4.28.23,6.37.23,6.45,0,12.66-.58,18.71-.58,14.89-.86,29.08,6.43,37.03,19.05,13.47,18.24,22.69,39.26,26.96,61.53-3.99-18.05-17.66-65.27-50.78-65.28-1.22,0-2.44.07-3.65.19-9.49.96-19.03,1.45-28.58,1.46-14.59.44-29.18-1.05-43.38-4.45l-4.59-20.99Zm130.99,89.05c.95,4.27,1.33,6.9,1.33,6.9-.42-2.36-.86-4.66-1.33-6.9m-135.72-94.5l1.33,6.21,4.57,20.99.4,1.84,1.76.66c14.59,3.57,29.6,5.14,44.61,4.65,9.67,0,19.33-.5,28.95-1.48,1.11-.11,2.22-.17,3.32-.17,31.09,0,44.14,47.85,47.4,62.55.49,2.23.93,4.51,1.33,6.77l6.84-1.14c0-.11-.44-2.79-1.4-7.11-4.37-22.78-13.81-44.29-27.62-62.94-8.63-13.44-23.81-21.22-39.76-20.37-3.06,0-6.19.15-9.21.29s-6.3.29-9.5.29c-2.21,0-4.21-.07-6.11-.21-13.96-1.17-27.71-4.07-40.96-8.64l-5.96-2.19Z" style="fill:#194735;"/><path id="Path_1232" d="m420.18,778.54c-60.14-1.03-119.99-8.62-178.48-22.65l-3.17-.82.62-3.2c4.18-26.77,4.18-54.03,0-80.8l-.94-5.44,5.32,1.52c.91.26,91.85,25.86,176.67,25.86s180.88-25.62,181.85-25.88l5.4-1.46-1.1,5.48c-4.29,27.14-4.29,54.79,0,81.94l.56,3.24-3.2.74c-60.33,13.1-121.79,20.29-183.52,21.47" style="fill:#ded9da;"/><path id="Path_1233" d="m602.92,670.49c-4.39,27.56-4.39,55.64,0,83.2-60.07,13.09-121.28,20.26-182.75,21.38-59.85-.97-119.42-8.52-177.62-22.53,4.29-27.18,4.29-54.87,0-82.05,0,0,91.31,26,177.63,26s182.75-26,182.75-26m-369.07-9.69l1.88,10.87c4.11,26.36,4.11,53.19,0,79.55l-1.24,6.41,6.34,1.63c58.78,14.09,118.91,21.72,179.35,22.75,61.99-1.19,123.71-8.4,184.3-21.55l6.41-1.48-1.14-6.47c-4.21-26.73-4.21-53.94,0-80.67l2.19-10.96-10.8,2.91c-.95.26-96.57,25.76-180.93,25.76s-174.81-25.48-175.72-25.74l-10.63-3.03Z" style="fill:#194735;"/><g id="V" style="isolation:isolate;"><text transform="translate(268.64 745.27) rotate(11.83)" style="fill:#194735; font-family:Arial-BoldMT, Arial; font-size:59.82px; font-weight:700; isolation:isolate;"><tspan x="0" y="0">V</tspan></text></g><g id="E-5" style="isolation:isolate;"><text transform="translate(317.65 754.66) rotate(5.11)" style="fill:#194735; font-family:Arial-BoldMT, Arial; font-size:59.81px; font-weight:700; isolation:isolate;"><tspan x="0" y="0">E</tspan></text></g><g id="R" style="isolation:isolate;"><text transform="translate(365.81 758.79) rotate(1.6)" style="fill:#194735; font-family:Arial-BoldMT, Arial; font-size:59.83px; font-weight:700; isolation:isolate;"><tspan x="0" y="0">R</tspan></text></g><g id="I-2" style="isolation:isolate;"><text transform="translate(416.62 753.2) rotate(-.34)" style="fill:#194735; font-family:Arial-BoldMT, Arial; font-size:53.16px; font-weight:700; isolation:isolate;"><tspan x="0" y="0">I</tspan></text></g><g id="T-2" style="isolation:isolate;"><text transform="translate(439.24 759.85) rotate(-2.46)" style="fill:#194735; font-family:Arial-BoldMT, Arial; font-size:59.8px; font-weight:700; isolation:isolate;"><tspan x="0" y="0">T</tspan></text></g><g id="A-3" style="isolation:isolate;"><text transform="translate(479.26 758.23) rotate(-5.97)" style="fill:#194735; font-family:Arial-BoldMT, Arial; font-size:59.83px; font-weight:700; isolation:isolate; letter-spacing:-.04em;"><tspan x="0" y="0">A</tspan></text></g><g id="S-2" style="isolation:isolate;"><text transform="translate(532.03 752.56) rotate(-11.95)" style="fill:#194735; font-family:Arial-BoldMT, Arial; font-size:59.79px; font-weight:700; isolation:isolate;"><tspan x="0" y="0">S</tspan></text></g><path id="Path_1234" d="m252.36,500.09c-23.18,4.8-47.14,4.39-70.14-1.22,2.09,6.38,4.83,12.53,8.18,18.35,41.87,8.41,62.14-8.73,82.31-2.75,16.08,4.76,32.38,37.05,32.38,37.05,0,0-19.75-60.01-52.73-51.44" style="fill:#f7ab11;"/><path id="Path_1235" d="m252.36,500.09c-23.18,4.8-47.14,4.39-70.14-1.22,2.09,6.38,4.83,12.53,8.18,18.35,41.87,8.41,62.14-8.73,82.31-2.75,16.08,4.76,32.38,37.05,32.38,37.05,0,0-19.75-60.01-52.73-51.44Z" style="fill:none; stroke:#194735; stroke-miterlimit:10; stroke-width:.57px;"/></g></g></g></g></svg>